<svg id="Calque_1" data-name="Calque 1" xmlns="http://www.w3.org/2000/svg" viewBox="0 0 367.72 475.95"><defs><style>.cls-1{fill:none;}.cls-2{fill:#007338;}</style></defs><title>architecture</title><rect class="cls-1" x="25.88" y="409.47" width="315.95" height="45.41"/><path class="cls-1" d="M110.42,138.76H401.58l-145.49-102ZM286.59,93.6A30.59,30.59,0,1,1,256,63,30.59,30.59,0,0,1,286.59,93.6Z" transform="translate(-72.14 -11.05)"/><rect class="cls-1" x="82.51" y="342.66" width="202.7" height="26.14"/><path class="cls-2" d="M325.56,335.75V173A5.27,5.27,0,0,0,315,173V335.75a5.27,5.27,0,1,0,10.53,0Z" transform="translate(-72.14 -11.05)"/><path class="cls-2" d="M282.7,335.75V173a5.27,5.27,0,0,0-10.54,0V335.75a5.27,5.27,0,0,0,10.54,0Z" transform="translate(-72.14 -11.05)"/><path class="cls-2" d="M239.84,335.75V173a5.27,5.27,0,0,0-10.54,0V335.75a5.27,5.27,0,0,0,10.54,0Z" transform="translate(-72.14 -11.05)"/><path class="cls-2" d="M197,335.75V173a5.27,5.27,0,0,0-10.53,0V335.75a5.27,5.27,0,1,0,10.53,0Z" transform="translate(-72.14 -11.05)"/><path class="cls-2" d="M434.44,136.07,256.1,11.05,77.83,135.86a12.94,12.94,0,0,0-5.11,14.49,13.87,13.87,0,0,0,13.47,9.48h339.6a13.91,13.91,0,0,0,13.42-9.32A12.79,12.79,0,0,0,434.44,136.07Zm-324,2.69,145.67-102,145.49,102Z" transform="translate(-72.14 -11.05)"/><circle class="cls-2" cx="183.86" cy="82.54" r="30.59"/><path class="cls-2" d="M144.12,390.39H367.88V343.18H144.12Zm10.53-36.67h202.7v26.14H154.65Z" transform="translate(-72.14 -11.05)"/><path class="cls-2" d="M77,487H435V399.45H77ZM98,420.52H414v45.41H98Z" transform="translate(-72.14 -11.05)"/></svg>