<svg id="Calque_1" data-name="Calque 1" xmlns="http://www.w3.org/2000/svg" viewBox="0 0 471 447.22"><defs><style>.cls-1{fill:#007338;}</style></defs><title>Carnet</title><path class="cls-1" d="M256.51,470.5,21,387.62V23.27l235.51,80.36ZM41.06,373.41l195.38,68.76V118L41.06,51.32Z" transform="translate(-21 -23.27)"/><path class="cls-1" d="M228.53,129.86a2.64,2.64,0,0,1-.78-.12l-175.06-57A2.51,2.51,0,0,1,54.24,68L229.3,125a2.51,2.51,0,0,1-.77,4.89Z" transform="translate(-21 -23.27)"/><path class="cls-1" d="M228.53,153a2.64,2.64,0,0,1-.78-.12l-175.06-57a2.51,2.51,0,0,1,1.55-4.77l175.06,57a2.51,2.51,0,0,1-.77,4.89Z" transform="translate(-21 -23.27)"/><path class="cls-1" d="M228.53,177.38a2.64,2.64,0,0,1-.78-.12l-175.06-57a2.51,2.51,0,1,1,1.55-4.77l175.06,57a2.51,2.51,0,0,1-.77,4.9Z" transform="translate(-21 -23.27)"/><path class="cls-1" d="M228.53,201.76a2.36,2.36,0,0,1-.78-.13l-175.06-57a2.51,2.51,0,1,1,1.55-4.77l175.06,57a2.51,2.51,0,0,1-.77,4.9Z" transform="translate(-21 -23.27)"/><path class="cls-1" d="M228.53,226.13a2.64,2.64,0,0,1-.78-.12L52.69,169a2.51,2.51,0,1,1,1.55-4.77l175.06,57a2.51,2.51,0,0,1-.77,4.89Z" transform="translate(-21 -23.27)"/><path class="cls-1" d="M228.53,250.5a2.35,2.35,0,0,1-.78-.12l-175.06-57a2.51,2.51,0,1,1,1.55-4.77l175.06,57a2.51,2.51,0,0,1-.77,4.89Z" transform="translate(-21 -23.27)"/><path class="cls-1" d="M228.53,274.88a2.64,2.64,0,0,1-.78-.12l-175.06-57A2.51,2.51,0,1,1,54.24,213L229.3,270a2.51,2.51,0,0,1-.77,4.89Z" transform="translate(-21 -23.27)"/><path class="cls-1" d="M228.53,299.25a2.64,2.64,0,0,1-.78-.12l-175.06-57a2.51,2.51,0,0,1,1.55-4.77l175.06,57a2.51,2.51,0,0,1-.77,4.89Z" transform="translate(-21 -23.27)"/><path class="cls-1" d="M228.53,323.63a2.64,2.64,0,0,1-.78-.12l-175.06-57a2.51,2.51,0,0,1,1.55-4.77l175.06,57a2.51,2.51,0,0,1-.77,4.89Z" transform="translate(-21 -23.27)"/><path class="cls-1" d="M228.53,348a2.36,2.36,0,0,1-.78-.13l-175.06-57a2.51,2.51,0,0,1,1.55-4.78l175.06,57a2.51,2.51,0,0,1-.77,4.9Z" transform="translate(-21 -23.27)"/><path class="cls-1" d="M228.53,372.38a2.64,2.64,0,0,1-.78-.12l-175.06-57a2.51,2.51,0,0,1,1.55-4.77l175.06,57a2.51,2.51,0,0,1-.77,4.89Z" transform="translate(-21 -23.27)"/><path class="cls-1" d="M228.53,396.75a2.64,2.64,0,0,1-.78-.12l-175.06-57a2.51,2.51,0,0,1,1.55-4.77l175.06,57a2.51,2.51,0,0,1-.77,4.89Z" transform="translate(-21 -23.27)"/><path class="cls-1" d="M228.53,421.13a2.36,2.36,0,0,1-.78-.13L52.69,364a2.51,2.51,0,0,1,1.55-4.77l175.06,57a2.51,2.51,0,0,1-.77,4.9Z" transform="translate(-21 -23.27)"/><path class="cls-1" d="M256.49,470.5V104.14L492,23.78V396.67Zm20.07-352V443.18l195.38-61.25V51.83Z" transform="translate(-21 -23.27)"/><path class="cls-1" d="M284.47,130.37a2.51,2.51,0,0,1-.77-4.89l175.05-57a2.51,2.51,0,0,1,1.56,4.77l-175.06,57A2.64,2.64,0,0,1,284.47,130.37Z" transform="translate(-21 -23.27)"/><path class="cls-1" d="M284.47,153.51a2.51,2.51,0,0,1-.77-4.89l175.05-57a2.51,2.51,0,0,1,1.56,4.77l-175.06,57A2.64,2.64,0,0,1,284.47,153.51Z" transform="translate(-21 -23.27)"/><path class="cls-1" d="M284.47,177.89a2.51,2.51,0,0,1-.77-4.9l175.05-57a2.51,2.51,0,0,1,1.56,4.77l-175.06,57A2.36,2.36,0,0,1,284.47,177.89Z" transform="translate(-21 -23.27)"/><path class="cls-1" d="M284.47,202.27a2.51,2.51,0,0,1-.77-4.9l175.05-57a2.51,2.51,0,0,1,1.56,4.77l-175.06,57A2.36,2.36,0,0,1,284.47,202.27Z" transform="translate(-21 -23.27)"/><path class="cls-1" d="M284.47,226.64a2.51,2.51,0,0,1-.77-4.89l175.05-57a2.51,2.51,0,0,1,1.56,4.77l-175.06,57A2.64,2.64,0,0,1,284.47,226.64Z" transform="translate(-21 -23.27)"/><path class="cls-1" d="M284.47,251a2.51,2.51,0,0,1-.77-4.89l175.05-57a2.51,2.51,0,0,1,1.56,4.77l-175.06,57A2.64,2.64,0,0,1,284.47,251Z" transform="translate(-21 -23.27)"/><path class="cls-1" d="M284.47,275.39a2.51,2.51,0,0,1-.77-4.9l175.05-57a2.51,2.51,0,0,1,1.56,4.77l-175.06,57A2.64,2.64,0,0,1,284.47,275.39Z" transform="translate(-21 -23.27)"/><path class="cls-1" d="M284.47,299.76a2.51,2.51,0,0,1-.77-4.89l175.05-57a2.51,2.51,0,0,1,1.56,4.77l-175.06,57A2.64,2.64,0,0,1,284.47,299.76Z" transform="translate(-21 -23.27)"/><path class="cls-1" d="M284.47,324.14a2.51,2.51,0,0,1-.77-4.89l175.05-57a2.51,2.51,0,0,1,1.56,4.77L285.25,324A2.64,2.64,0,0,1,284.47,324.14Z" transform="translate(-21 -23.27)"/><path class="cls-1" d="M284.47,348.51a2.51,2.51,0,0,1-.77-4.89l175.05-57a2.51,2.51,0,0,1,1.56,4.78l-175.06,57A2.35,2.35,0,0,1,284.47,348.51Z" transform="translate(-21 -23.27)"/><path class="cls-1" d="M284.47,372.89a2.51,2.51,0,0,1-.77-4.89l175.05-57a2.51,2.51,0,0,1,1.56,4.77l-175.06,57A2.64,2.64,0,0,1,284.47,372.89Z" transform="translate(-21 -23.27)"/><path class="cls-1" d="M284.47,397.26a2.51,2.51,0,0,1-.77-4.89l175.05-57a2.51,2.51,0,0,1,1.56,4.77l-175.06,57A2.64,2.64,0,0,1,284.47,397.26Z" transform="translate(-21 -23.27)"/><path class="cls-1" d="M284.47,421.64a2.51,2.51,0,0,1-.77-4.9l175.05-57a2.51,2.51,0,0,1,1.56,4.77l-175.06,57A2.36,2.36,0,0,1,284.47,421.64Z" transform="translate(-21 -23.27)"/></svg>