<svg id="Calque_1" data-name="Calque 1" xmlns="http://www.w3.org/2000/svg" viewBox="0 0 496.25 393.01"><defs><style>.cls-1{fill:none;}.cls-2{fill:#007338;}</style></defs><title>CHUTES</title><path class="cls-1" d="M278,260.74c-2.67,2.34-4.26,4.73-4.46,6.73a3.06,3.06,0,0,0,.17,1.24l6.84-10C279.69,259.38,278.83,260.05,278,260.74Z" transform="translate(-5.61 -44.54)"/><path class="cls-1" d="M247.5,263.36l2-10.26c-3.13,2-5.54,3.87-7,6l3.2,7.76.77,1.86Z" transform="translate(-5.61 -44.54)"/><path class="cls-1" d="M283.83,106.12c.3-.75.8-2-1.71-4.68a8.64,8.64,0,0,1,1.24,4.55,7.5,7.5,0,0,1-.27,1.75C283.35,107.21,283.6,106.67,283.83,106.12Z" transform="translate(-5.61 -44.54)"/><path class="cls-1" d="M230.06,252.12a72.53,72.53,0,0,1-6.15,4.86l4.05,5.93c0-.52.09-1,.18-1.56a17.58,17.58,0,0,1,5.91-10.45v-3A33.44,33.44,0,0,1,230.06,252.12Z" transform="translate(-5.61 -44.54)"/><path class="cls-1" d="M222.67,278l-.07-.33-.72-.41Z" transform="translate(-5.61 -44.54)"/><path class="cls-1" d="M214.57,267.47a15.16,15.16,0,0,0,.75,3.69l-.24-.22,6.47,6.05.66.41.38.24-3.43-17-.13.1C216.36,263.08,214.77,265.47,214.57,267.47Z" transform="translate(-5.61 -44.54)"/><path class="cls-1" d="M300.72,297.93h0l15.59-4.38c-.9-3-3.37-5.32-7-7.82l-8.58,12.21Z" transform="translate(-5.61 -44.54)"/><path class="cls-1" d="M229.71,261.61a17,17,0,0,0-.2,3.56l1.09,1.6c0-.27,0-.55.05-.82a22,22,0,0,1,3.4-9.49v-3.39A16.11,16.11,0,0,0,229.71,261.61Z" transform="translate(-5.61 -44.54)"/><path class="cls-1" d="M314.18,168.67a4.86,4.86,0,0,0-.46-1.71,9.53,9.53,0,0,1,.23,3.24A4.48,4.48,0,0,0,314.18,168.67Z" transform="translate(-5.61 -44.54)"/><path class="cls-1" d="M295.46,280.79l-2.59,6.09,6.8-3.89,2.62-1.5.24-.13-.2-.14a38,38,0,0,1-5.3-4.12Z" transform="translate(-5.61 -44.54)"/><path class="cls-1" d="M332.31,174.46l-1.89,1c.52-.26,1-.53,1.55-.83Z" transform="translate(-5.61 -44.54)"/><path class="cls-1" d="M287.05,294.7l-2.27,1.3,1.55-3.67,3.25-7.65,2.88-6.78,1.74-4.09.64-1.53-1,1-2.8,2.62-5.59,5.22L280.17,286l-3.4,3.18,1-4.79,1.5-7.41,2.7-13.37L274.83,274l-1.58,2.31-2.43,3.55-2.47,3.61-.47.69-.21.31v-7.19l0-19-4.91,11.91-2.33,5.63-2.41,5.84-.19.47-.14-.72-4.55-23.15-.83.62-3.3,16.8-1.26,6.45-2.5-6.06-2.16-5.23-2.36-5.71L238,258.27l0,17.43v8.78l-5.87-8.59-2.53-3.7-5.87-8.59,3.45,17,1.72,8.52-14.53-13.58-.56-.52c.07.71.16,1.54.26,2.43.12,1,.26,2.16.41,3.32l0,0,0,.12,6.4,15.09-18.81-10.78L199.89,284l4.65,6.61,9.87,14L194.35,299l-2.81-.79,5,4.46,13.35,12-22.8-.39-.78,0,2.74,1.46,10.73,5.74,4.84,2.58,2.49,1.33.11,0,3.5.81v3.27c-7.68,0-18.21,0-26.57,1.94a10.55,10.55,0,0,0-4.77,2,2.17,2.17,0,0,0-.72,1.41c0,1.26,1.47,3.13,4,4.86,7.12,4.92,16.72,7,25.2,8.76,7.62,1.61,18.56,3.93,20.13,13.2a10.67,10.67,0,0,1-.18,4.48,26,26,0,0,1,3.89,12.75l-1.6.05a24.38,24.38,0,0,0-3-10.85,11.78,11.78,0,0,1-1.21,1.91c-4.49,5.71-13.91,6.8-16.69,7-10,.72-20.08,1.37-30.13,2-15.83,1-32.2,2-48.24,3.41-48.92,4.15-89.31,13.74-108,25.66-3,1.89-9.72,6.69-8.35,10.44,1.14,3.11,10.31,5.34,22,8.14l173.51.27c-6.41-2.93-10.74-5.88-13.24-8.94a10.1,10.1,0,0,1-2.07-9.87c1.06-3.09,3.62-5.78,7.63-8.07-4,.47-6.74.71-6.8.71l-.14-1.59c.08,0,5.06-.44,11.48-1.31A68.2,68.2,0,0,1,217,394.77l2.12-.47c12.29-2.57,25-3.71,37.25-4.81,3.25-.3,6.53-.59,9.82-.92l-.06-1.34,1.45-.09a162.47,162.47,0,0,0,37.31-6.42,32.54,32.54,0,0,0,8.32-3.44c3-2,5.76-5.95,4.83-9.39a8.29,8.29,0,0,0-4.7-5.14l.28-.62.28-.63a9.68,9.68,0,0,1,5.46,6c1,3.83-1.49,8-4.7,10.4,4-2.09,6.81-4.7,6.79-8.22,0-7.92-13.78-12.59-23.82-16-2.39-.81-4.64-1.58-6.58-2.32-3.6-1.4-7.69-3-11.08-5.56-4.44-3.37-6.73-7.84-6.27-12.27a10,10,0,0,1,2.87-6.25c6-.62,11.29-1.16,14.66-1.52l.34,0,3.63-.38.91-.06,2-.2.81-.08,20.29-2,2.57-.25-9-3.7L307,316.72l-7.75-3.18-.68-.27,16.05-15.19-22.43,6.31-.89.25,2.15-3.06L305.77,284,293.44,291ZM18.13,417.26c.12,1.83,2.82,3,5.06,3.62l-.37,1.32c-3.89-1.11-5.92-2.74-6.05-4.86-.39-6.32,17.39-14,19.42-14.91l.53,1.26C31.46,405.92,17.85,412.72,18.13,417.26Zm83.35-27.38-.2-1.36c8.77-1.26,17.71-2.14,26.6-2.64l.07,1.37C119.11,387.74,110.2,388.63,101.48,389.88ZM130,403.6a2.88,2.88,0,0,0-.42,2.54l-1.33.36a4.28,4.28,0,0,1,.62-3.67c3-4.45,14.19-5.7,14.66-5.76l.15,1.36C143.58,398.45,132.68,399.67,130,403.6Zm56.1,1.38a10.7,10.7,0,0,0,.45,10.15l-1.17.7a12.06,12.06,0,0,1-.51-11.45,16,16,0,0,1,9.8-7.88l.4,1.31A14.63,14.63,0,0,0,186.11,405Zm85.78-77.19h-.21l.21,0Z" transform="translate(-5.61 -44.54)"/><path class="cls-2" d="M271.89,327.79h0l-.21,0Z" transform="translate(-5.61 -44.54)"/><path class="cls-2" d="M109.13,187.32A52.62,52.62,0,0,1,132,189.21c7,2.11,12.89,5.87,18.89,10s11.84,8,18,10.46A33.79,33.79,0,0,0,185.74,212a21.72,21.72,0,0,0,10.3-4.16,15.89,15.89,0,0,0,2.16-1.95l.68-.71a21,21,0,0,1-13.4,2.34,32.35,32.35,0,0,1-11.78-4.45c-7-4.33-13-10.76-20.42-16.48a58,58,0,0,0-12.35-7.52,53.88,53.88,0,0,0-13.72-4,54.56,54.56,0,0,0-26,2.51A53,53,0,0,0,82.36,189c-4.65,4.43-8.12,8.51-11.42,11.58a36.53,36.53,0,0,1-8.6,6.32,24.22,24.22,0,0,1-2.75,1.18l-1,.37c5.31,0,10.48-2,14.91-4.42s8.44-5.33,12.28-7.82A55.65,55.65,0,0,1,109.13,187.32Z" transform="translate(-5.61 -44.54)"/><path class="cls-2" d="M489.52,153.17a49,49,0,0,1-7.82-10.36c-4.3-7.31-7.7-16.08-14.11-23.8a32.64,32.64,0,0,0-12.67-9.68,26.79,26.79,0,0,0-16.22-1.16c-10.06,2.33-17.24,8.37-22.75,13.69s-9.91,10.58-14.31,14.59a41.59,41.59,0,0,1-12.94,8.44,24.49,24.49,0,0,1-10.51,1.72,21.9,21.9,0,0,1-3-.42l-1.05-.23c.16.11.33.19.5.29a42.4,42.4,0,0,0-5.63-.15,46.93,46.93,0,0,0-24,8.19c-6.36,4.25-11.25,8.84-15.65,12.74l-.25.21c-.54-6.4-4.33-12.42-11-17.45-1.66-1.25-3.32-2.34-4.93-3.4a40.9,40.9,0,0,1-6.64-5c-1.88-1.91-3-4.53-2.43-5.83s3-2.87,5.43-4.31c.94-.58,1.92-1.17,2.91-1.82a41.38,41.38,0,0,0,15.27-18.64c3.56-8.7.52-17-9-24.61-1.4-1.12-2.81-2.13-4.17-3.12a37.69,37.69,0,0,1-6.81-5.72c-1.8-2.14-2.38-4.76-1.78-5.78s2.92-2.2,5.12-3.26c1.47-.71,3-1.44,4.52-2.37a29.79,29.79,0,0,0,13.94-21.4H314.22a14.8,14.8,0,0,1-6.4,8.56c-.94.57-2.09,1.12-3.3,1.71C300.71,56.65,296,59,293,64c-4.6,7.81-1.7,17.2,3.21,23a50.17,50.17,0,0,0,9.52,8.23c1.27.92,2.47,1.79,3.58,2.68,5.62,4.49,4.9,6.26,4.51,7.21a26.14,26.14,0,0,1-9.68,11.81c-.78.52-1.59,1-2.4,1.5-4,2.44-9,5.48-11.49,11.37-2.93,7-.74,15.71,5.58,22.13a53.68,53.68,0,0,0,9.09,7c2.45,1.6,5.24,3.37,7.12,5.65a6.74,6.74,0,0,1,1.69,5.18,7.7,7.7,0,0,1-1.55,3.34c-2.26,3.09-5.34,4.59-8.5,6.51-.91.54-1.82,1.09-2.71,1.66-3.08,1.93-6.23,4.22-8.41,7.85-4.15,6.91-3.07,16.25,2.75,23.8a54.56,54.56,0,0,0,9,8.69c1.41,1.16,2.75,2.26,4,3.39,3.22,3,5,6.06,4.88,8.36-.1,1.94-1.6,4.36-4.11,6.64-1.5,1.35-3.25,2.62-5.09,4s-3.84,2.81-5.76,4.48c-5.62,4.91-8.91,10.62-9.51,16.5a18,18,0,0,0,.72,7.12l-4.29,4L283,278l.11-.53,4.95-24.5c.34-.29.68-.57,1-.88,5.6-5.06,8.72-10.94,9-17a16.24,16.24,0,0,0-.26-4.51A31.54,31.54,0,0,0,288.47,215c-1.54-1.44-3.12-2.74-4.64-4a42.34,42.34,0,0,1-6.63-6.28c-1.84-2.38-2.63-5.48-1.78-6.91.65-1.07,2.6-2.29,3.54-2.88s1.65-1,2.49-1.53a56.42,56.42,0,0,0,9.71-6.87c5.38-5,8.3-11.4,8-17.6-.31-6.68-4.14-13-11.06-18.18-1.66-1.25-3.32-2.34-4.93-3.4a40.9,40.9,0,0,1-6.64-5c-1.88-1.91-3-4.53-2.43-5.83s3-2.87,5.43-4.31c.94-.58,1.92-1.17,2.91-1.82a41.38,41.38,0,0,0,15.27-18.64c3.56-8.7.52-17-9-24.61-1.4-1.12-2.81-2.13-4.17-3.12a37.69,37.69,0,0,1-6.81-5.72c-1.8-2.14-2.38-4.76-1.78-5.78s2.92-2.2,5.12-3.26c1.47-.71,3-1.44,4.52-2.37a29.74,29.74,0,0,0,14-22.4H284.48a14.85,14.85,0,0,1-6.66,9.56c-.94.57-2.09,1.12-3.3,1.71C270.71,57.65,266,60,263,65c-4.6,7.81-1.7,17.2,3.21,23,4,4.74,9.4,7.86,13.94,12,1.82,1.65,3.33,4,3,6.42a9.94,9.94,0,0,1-1.2,3,25.06,25.06,0,0,1-1.82,3,23.89,23.89,0,0,1-6,5.48c-.78.52-1.59,1-2.4,1.5-4,2.44-9,5.48-11.49,11.37-2.93,7-.74,15.71,5.58,22.13a53.68,53.68,0,0,0,9.09,7c1.48,1,2.87,1.88,4.14,2.84,3.15,2.38,5,4.89,5.11,6.9.08,1.72-1.15,4-3.22,5.9a45.82,45.82,0,0,1-7.27,5c-.91.54-1.82,1.09-2.71,1.66-3.08,1.93-6.23,4.22-8.41,7.85-3,5-3.13,11.19-1.21,16.61a25.34,25.34,0,0,0,5.9,9.31c1.11,1.13,2.2,2.28,3.29,3.4a46.93,46.93,0,0,0,3.73,3.17c1.41,1.16,2.75,2.26,4,3.39,3.22,3,5,6.06,4.88,8.36-.1,1.94-1.6,4.36-4.11,6.64-1.5,1.35-3.25,2.62-5.09,4-.76.55-1.53,1.12-2.3,1.7l0-8.1L266.51,251c-4.6,4.54-7.31,9.66-7.86,14.92l-2-10.21c1.47-1.1,3-2.26,4.42-3.58,5.6-5.06,8.72-10.94,9-17,.36-6.94-3-13.88-9.63-20.09-1.54-1.44-3.12-2.74-4.64-4a42.34,42.34,0,0,1-6.63-6.28c-1.84-2.38-2.63-5.48-1.78-6.91.65-1.07,2.6-2.29,3.54-2.88s1.65-1,2.49-1.53a56.42,56.42,0,0,0,9.71-6.87c5.38-5,8.3-11.4,8-17.6-.31-6.68-4.14-13-11.06-18.18-1.66-1.25-3.32-2.34-4.93-3.4a40.9,40.9,0,0,1-6.64-5c-1.88-1.91-3-4.53-2.43-5.83s3-2.87,5.43-4.31c.94-.58,1.92-1.17,2.91-1.82a41.38,41.38,0,0,0,15.27-18.64c3.56-8.7.52-17-9-24.61-1.4-1.12-2.81-2.13-4.17-3.12a37.69,37.69,0,0,1-6.81-5.72c-1.8-2.14-2.38-4.76-1.78-5.78s2.92-2.2,5.13-3.26c1.46-.71,3-1.44,4.51-2.37a29.74,29.74,0,0,0,14-22.4H256.48a14.85,14.85,0,0,1-6.66,9.56c-.94.57-2.09,1.12-3.3,1.71C242.71,57.65,238,60,235,65c-4.6,7.81-1.7,17.2,3.21,23a50.17,50.17,0,0,0,9.52,8.23c1.27.92,2.47,1.79,3.58,2.68,5.62,4.49,4.9,6.26,4.51,7.21a26.14,26.14,0,0,1-9.68,11.81c-.77.52-1.59,1-2.4,1.5-4,2.44-9,5.48-11.49,11.37-2.93,7-.74,15.71,5.58,22.13a53.68,53.68,0,0,0,9.09,7c1.48,1,2.87,1.89,4.14,2.84,3.15,2.38,5,4.89,5.11,6.9.08,1.72-1.15,4-3.22,5.9a45.82,45.82,0,0,1-7.27,5c-.91.54-1.82,1.09-2.71,1.66-3.08,1.93-6.23,4.22-8.41,7.85-4.15,6.91-3.07,16.25,2.75,23.8a54.56,54.56,0,0,0,9,8.69c1.41,1.16,2.75,2.26,4,3.39,3.22,3,5,6.06,4.88,8.36a8,8,0,0,1-1.84,4.19l-.45-2.29-.72,3.65c-.34.36-.71.73-1.1,1.09a64,64,0,0,1-5.09,4c-1.89,1.38-3.85,2.81-5.76,4.48-.41.36-.81.72-1.19,1.09l-2.58-6.23a21.17,21.17,0,0,0,2.71-9.18c.36-6.94-3-13.88-9.63-20.09-1.54-1.44-3.12-2.74-4.64-4a42.34,42.34,0,0,1-6.63-6.28c-1.84-2.38-2.63-5.48-1.78-6.91.65-1.07,2.6-2.29,3.54-2.88s1.65-1,2.49-1.53a56.42,56.42,0,0,0,9.71-6.87c3.24-3,6.31-7.13,7.29-11.52,2.17-9.69-2.75-18.53-10.35-24.26-1.66-1.25-3.32-2.34-4.93-3.4a40.9,40.9,0,0,1-6.64-5c-1.88-1.91-3-4.53-2.43-5.83s3-2.87,5.43-4.31c.94-.58,1.92-1.17,2.91-1.82a41.38,41.38,0,0,0,15.27-18.64c3.56-8.7.52-17-9-24.61-1.4-1.12-2.81-2.13-4.17-3.12a37.69,37.69,0,0,1-6.81-5.72c-1.8-2.14-2.38-4.76-1.78-5.78s2.92-2.2,5.13-3.26c1.46-.71,3-1.44,4.51-2.37a29.74,29.74,0,0,0,14-22.4H225.48a14.85,14.85,0,0,1-6.66,9.56c-.94.57-2.09,1.12-3.3,1.71C211.71,57.65,207,60,204,65c-4.6,7.81-1.7,17.2,3.21,23a50.17,50.17,0,0,0,9.52,8.23c1.27.92,2.47,1.79,3.58,2.68,5.62,4.49,4.9,6.26,4.51,7.21a26.14,26.14,0,0,1-9.68,11.81c-.77.52-1.59,1-2.4,1.5-4,2.44-9,5.48-11.49,11.37a16.21,16.21,0,0,0-1.17,4.7,28,28,0,0,0-21.83,1.06A42.81,42.81,0,0,0,166.62,145c-.66.66-1.29,1.31-1.9,1.95a23.93,23.93,0,0,1-7.69-5.19c-.65-.61-1.25-1.3-1.85-2l-1.94-2.27a64.12,64.12,0,0,0-4.59-4.59,71,71,0,0,0-10.3-7.65,75.49,75.49,0,0,0-11.29-5.68,48.11,48.11,0,0,0-12.59-3.06A58.13,58.13,0,0,0,91.37,119c-13.71,4.35-23.16,11.45-29.64,16.38s-9.95,8.39-9.95,8.39c16.26-6.16,31.94-13,46.65-14.63A55.87,55.87,0,0,1,119,130.29a67.53,67.53,0,0,1,9.19,3.34c3,1.3,5.87,2.69,8.54,4.16s5.17,3,7.46,4.53,4.14,3.12,6.85,5a28.6,28.6,0,0,0,9.55,4.15c-3,3.29-5.38,6.14-7.71,8.24a40.65,40.65,0,0,1-4.73,3.73l-1.93,1.24c5.84.23,11.65-1.87,16.5-4.41s9.12-5.52,13-7.93a46.14,46.14,0,0,1,10.74-5.3,28.37,28.37,0,0,1,10-.92,32.06,32.06,0,0,1,6.21,1.24,25.46,25.46,0,0,0,4.16,5.59,53.68,53.68,0,0,0,9.09,7c1.48,1,2.87,1.89,4.14,2.84,3.15,2.38,5,4.89,5.11,6.91.08,1.71-1.15,4-3.22,5.89a45.82,45.82,0,0,1-7.27,5c-.91.54-1.82,1.09-2.71,1.66-3.08,1.93-6.23,4.22-8.41,7.85-4.15,6.91-3.07,16.25,2.75,23.8a54.56,54.56,0,0,0,9,8.69c1.41,1.16,2.75,2.26,4,3.39,3.22,3,5,6.06,4.88,8.36-.1,1.94-1.6,4.36-4.11,6.64-.9.81-1.9,1.59-2.94,2.38a23.19,23.19,0,0,1-5.51-3.71,83.26,83.26,0,0,1-8.46-9.4,51.7,51.7,0,0,0-10.4-10A31,31,0,0,0,178,215.11c-10.19-.85-19.24,2.31-26.67,6.12S138,229.41,132.44,233s-10.49,6.42-15.19,8.12a36.68,36.68,0,0,1-12.58,2.48,25.71,25.71,0,0,1-8.19-1.29,17.17,17.17,0,0,1-2.09-.81l-.73-.3A22.49,22.49,0,0,0,104.18,248a34.07,34.07,0,0,0,13.48,1.23c9.26-.89,17.72-5,25.06-8.86s14.08-8.07,20.46-10.53,12.82-3.68,18.4-2.82a23.66,23.66,0,0,1,7.81,2.76,62,62,0,0,1,7.08,4.9c4.47,3.52,8.79,6.85,12.8,8.61a22.73,22.73,0,0,0,5.47,1.8c-1.84,1.34-3.73,2.73-5.58,4.35a30.41,30.41,0,0,0-7.3,9.12l-1.79-1.67,1.22,2.89a20.69,20.69,0,0,0-1.64,6.16c-.87,8.51,4.45,16.45,12,18.35l1.1,2.58-26.13-15,18.28,26-28.42-8,23,20.66-29.29-.5,22.12,11.81a75.26,75.26,0,0,0-10.06,1.55c-2.45.56-6,1.61-8.62,4.14a10.23,10.23,0,0,0-3.2,6.93c-.12,3,1.08,7.5,7.51,11.94,8.46,5.85,18.92,8.07,28.53,10.11,1.25.26,2.65.56,4.07.92v.29c.47,0,.94,0,1.4.08,3.86,1.08,7.47,2.64,7.9,5.19a2.23,2.23,0,0,1-.47,1.93c-1.53,1.94-6,3.55-10.85,3.9-10,.72-20,1.36-30.06,2-15.87,1-32.28,2.06-48.41,3.43-50.17,4.25-91.94,14.31-111.74,26.91C5.59,409.33,5,416.65,6.7,421.36c2.67,7.28,11.75,9.45,28.24,13.39l227.92.46L235,427.15c-17.68-5.11-28.45-9.92-32-14.29-1-1.2-.77-1.8-.68-2.06.73-2.14,5.49-5.53,16.49-8.06.65-.16,1.3-.3,2-.43,11.82-2.48,24.27-3.6,36.3-4.68,15.59-1.4,31.72-2.85,47.13-7.25,9.52-2.72,25.45-7.27,25.4-20.7,0-13.76-17-19.51-29.37-23.71-2.28-.77-4.41-1.5-6.25-2.21-3.26-1.26-6.62-2.56-9.1-4.44-2-1.53-3.23-3.47-3.08-4.92.36-3.46,8.78-4,13.81-4.3,1-.06,2-.12,2.9-.2l-.08-.9,39.31-3.85-26.76-11c6.3-4,12.83-8.76,12.83-17.91,0-.35,0-.68-.05-1l-2.22,1.61,2.19-2.08.66-.62,4.32-4.09-5.55,1.56c-1.49-5.26-5.47-8.77-9.77-11.69l5.63-8-9.56,5.46a66.23,66.23,0,0,1-5.9-4l.72-4.64.15.05a2.93,2.93,0,0,1-.85-2.32c.2-2,1.79-4.39,4.46-6.73,1.42-1.24,3-2.41,4.73-3.65,1.89-1.38,3.84-2.82,5.75-4.48a43,43,0,0,0,14.6-4.24c9.13-4.4,16.28-15.4,27.2-15.14,10.42.25,17.54,11.44,25.16,17.15a64,64,0,0,0,13.21,7.67,25.76,25.76,0,0,0,11.37,3.13,31.68,31.68,0,0,0,3.22.23.53.53,0,0,0,.53-.6,20,20,0,0,0,7.49-3.24c1.64-1.26,2.44-2,2.44-2a21.27,21.27,0,0,1-11.24,1.58c-3.55-.52-6.55-2.36-9.3-4.41-5.48-4.34-10.18-10-15.5-15.38s-11.12-10.8-19.07-13.89a23.61,23.61,0,0,0-12.69-1.34,30.57,30.57,0,0,0-10.5,4.15c-5.84,3.66-10.05,7.81-13.83,11.31-1.86,1.75-3.61,3.37-5.28,4.82a20.52,20.52,0,0,0,1.78-7.31c.36-6.94-3-13.88-9.63-20.09-1.54-1.44-3.12-2.74-4.64-4a42.34,42.34,0,0,1-6.63-6.28c-1.84-2.38-2.63-5.48-1.78-6.91.65-1.07,2.6-2.29,3.54-2.88s1.65-1,2.49-1.53a56.42,56.42,0,0,0,9.71-6.87,28.09,28.09,0,0,0,3.06-3.34,36.65,36.65,0,0,0,13.86-5.09c9-5.52,16-13.63,26.75-16a36.27,36.27,0,0,1,28.11,5.34c4.87,3.36,8.89,9.53,14.19,12.4l.68.72a37.22,37.22,0,0,0-12.7,5.27A94.05,94.05,0,0,0,383.59,194a104.94,104.94,0,0,1-9.44,7.79,32.84,32.84,0,0,1-9.18,4.43c-6.35,1.78-13,1.38-18.83.32a106.7,106.7,0,0,1-15.31-4.3c-3.78-1.33-6.83-2.55-9.07-3.43-1.82-1.08-3.64-2.14-5.48-3.15a.18.18,0,0,0-.21.28c16.21,16.37,40.53,29.35,63.13,17.76,10.82-5.55,19.17-14.83,29.95-20.44a36.77,36.77,0,0,1,7.66-3l.92,0a35.78,35.78,0,0,1,5.86.55,20.79,20.79,0,0,0,4.32,1,52.88,52.88,0,0,1,9.16,3.66c1.23.64,2.41,1.29,3.56,2l.95.91a.81.81,0,0,0,.89.19c3.39,2.09,6.41,4.25,9,6.18l12.4,9.52c-6-8.57-12.36-17.21-20.95-24.2-7.21-5.88-16.36-10.36-26.25-11-1-1.45-1.88-2.94-2.81-4.46a99.56,99.56,0,0,0-7.43-11.16,47.34,47.34,0,0,0-10.58-9.63,45.51,45.51,0,0,0-8.69-4.54c.86,0,1.73-.09,2.58-.2a40.05,40.05,0,0,0,15-5.23c9-5.2,15.83-11.94,22.7-16.69,6.64-4.75,13.91-7.59,19.65-6.85s10.72,5.11,15,10.37,8,10.87,12.22,15.71A45.4,45.4,0,0,0,487.13,157,21.21,21.21,0,0,0,498,159.64a18.63,18.63,0,0,0,3.91-.61A19.51,19.51,0,0,1,489.52,153.17ZM283.36,106a8.64,8.64,0,0,0-1.24-4.55c2.51,2.67,2,3.93,1.71,4.68-.23.55-.48,1.09-.74,1.62A7.5,7.5,0,0,0,283.36,106ZM297,277.1a38,38,0,0,0,5.3,4.12l.2.14-.24.13-2.62,1.5-6.8,3.89,2.59-6.09Zm-19-16.36c.8-.69,1.66-1.36,2.55-2l-6.84,10a3.06,3.06,0,0,1-.17-1.24C273.77,265.47,275.36,263.08,278,260.74Zm-28.51-7.64-2,10.26-1,5.33-.77-1.86-3.2-7.76C244,257,246.39,255.14,249.52,253.1Zm-15.47,3.36a22,22,0,0,0-3.4,9.49c0,.27,0,.55-.05.82l-1.09-1.6a17,17,0,0,1,.2-3.56,16.11,16.11,0,0,1,4.34-8.54Zm-4-4.34a33.44,33.44,0,0,0,4-4.25v3a17.58,17.58,0,0,0-5.91,10.45c-.09.52-.14,1-.18,1.56L223.91,257A72.53,72.53,0,0,0,230.06,252.12ZM222.67,278l-.79-.74.72.41Zm-8.1-10.56c.2-2,1.79-4.39,4.46-6.73l.13-.1,3.43,17-.38-.24-.66-.41-6.47-6.05.24.22A15.16,15.16,0,0,1,214.57,267.47Zm101.77,26.07-15.59,4.38h0l8.58-12.21C313,288.22,315.44,290.5,316.34,293.54ZM305.77,284l-12.37,17.6-2.15,3.06.89-.25,22.43-6.31-16.05,15.19.68.27,7.75,3.18,5.82,2.39,9,3.7-2.57.25-20.29,2-.81.08-2,.2-.91.06-3.63.38-.34,0c-3.37.36-8.62.9-14.66,1.52a10,10,0,0,0-2.87,6.25c-.46,4.43,1.83,8.9,6.27,12.27,3.39,2.58,7.48,4.16,11.08,5.56,1.94.74,4.19,1.51,6.58,2.32,6,2,23.46,6.28,23.69,14.74.26,9.19-15,12-21.38,13.65a268,268,0,0,1-43.57,7.39c-13,1.16-25.9,2.45-38.59,5.36-8.81,2-19.7,3.18-23.17,13.3a10.13,10.13,0,0,0,2.07,9.87c2.5,3.06,6.83,6,13.24,8.94l-173.51-.27c-11.68-2.8-20.85-5-22-8.14C13,414.8,19.76,410,22.73,408.11c18.73-11.92,59.12-21.51,108-25.66,16-1.36,32.41-2.4,48.24-3.41,10.05-.64,20.09-1.29,30.13-2,8.57-.62,17.94-4.18,18.33-13.95.41-10.28-11.65-12.9-19.66-14.59-8.48-1.8-18.08-3.84-25.2-8.76-2.51-1.73-4-3.6-4-4.86a2.17,2.17,0,0,1,.72-1.41,10.55,10.55,0,0,1,4.77-2c8.36-1.93,18.89-1.94,26.57-1.94V326.2l-3.5-.81-.11,0L204.59,324l-4.84-2.58L189,315.71l-2.74-1.46.78,0,22.8.39-13.35-12-5-4.46,2.81.79,20.06,5.64-9.87-14L199.89,284l2.18,1.24L220.88,296l-6.4-15.09,0-.12,0,0c-.15-1.16-.29-2.28-.41-3.32-.1-.89-.19-1.72-.26-2.43l.56.52,14.53,13.58-1.72-8.52-3.45-17,5.87,8.59,2.53,3.7,5.87,8.59V275.7l0-17.43,2.82,6.85,2.36,5.71,2.16,5.23,2.5,6.06,1.26-6.45,3.3-16.8.83-.62,4.55,23.15.14.72.19-.47,2.41-5.84,2.33-5.63,4.91-11.91,0,19v7.19l.21-.31.47-.69,2.47-3.61,2.43-3.55,1.58-2.31,7.11-10.4L279.24,277l-1.5,7.41-1,4.79,3.4-3.18,5.27-4.93,5.59-5.22,2.8-2.62,1-1-.64,1.53-1.74,4.09-2.88,6.78-3.25,7.65L284.78,296l2.27-1.3,6.39-3.66ZM314,170.2a9.53,9.53,0,0,0-.23-3.24,4.86,4.86,0,0,1,.46,1.71A4.48,4.48,0,0,1,314,170.2Zm18,4.47c-.52.3-1,.57-1.55.83l1.89-1Z" transform="translate(-5.61 -44.54)"/><path class="cls-2" d="M284.39,107.24a5.14,5.14,0,0,0-.22-4.54,3.66,3.66,0,0,0-1.23-1.36c-.56-.36-1.81-.77-2.18-1.31,1.12,1.61,2.21,2.89,2.43,4.91a9.06,9.06,0,0,1-1.8,6.37A12.58,12.58,0,0,0,284.39,107.24Z" transform="translate(-5.61 -44.54)"/><path class="cls-2" d="M313.4,173c-.14.11-.35-.05-.37-.22a.78.78,0,0,1,.19-.47,14.61,14.61,0,0,0,1.33-2.46,5,5,0,0,0,.47-2.62c-.07-.5-.55-1.71-1.2-1.7-.9,0-.2,1.41-.11,1.89A11.47,11.47,0,0,1,313.4,173Z" transform="translate(-5.61 -44.54)"/><path class="cls-2" d="M197.18,329.68a21.76,21.76,0,0,0-6.75.24,15.11,15.11,0,0,0-5.76,2.44c-.39.31-.78.62-1.13,1a5.19,5.19,0,0,0-.41.41c-.11.14-.22.27-.32.42a4.81,4.81,0,0,0-.77,1.93,2.78,2.78,0,0,0,.16,1.53,3.53,3.53,0,0,0,1.19,1.33,11.12,11.12,0,0,0,2.59,1.35c1.19.45,2.41.88,3.65,1.28,2.48.8,5.06,1.5,7.71,2.21a98.16,98.16,0,0,1,16.35,5.43,33.91,33.91,0,0,1,8.06,5,17.82,17.82,0,0,1,3.61,4.14,11.75,11.75,0,0,1,1.78,6.37,9.09,9.09,0,0,1-.19,1.74,8.75,8.75,0,0,1-.5,1.75,10.29,10.29,0,0,1-1.8,3.05,15.49,15.49,0,0,1-4.58,3.57,36.47,36.47,0,0,1-8.89,3.07c-11.37,2.62-22.72,2.68-33.52,3.3l-8.22.51q-4.16.24-8.29.42l-16.5.66c-11,.43-21.83.95-32.57,2.14l-4,.48-4,.56L96,387.15c-5.41.83-10.79,1.72-16.12,2.71a221.28,221.28,0,0,0-31.3,7.91,146,146,0,0,0-14.86,6c-2.54,1.17-5,2.26-7.34,3.43A49.24,49.24,0,0,0,19.8,411a20.73,20.73,0,0,0-2.63,2.15,8.78,8.78,0,0,0-1,1.06,7.09,7.09,0,0,0-.74,1.13,5.68,5.68,0,0,0-.68,4.34,4,4,0,0,0,1.08,1.58,8.72,8.72,0,0,0,2.29,1.49A23.2,23.2,0,0,0,21.4,424c1.18.36,2.49.7,3.74,1,10.15,2.57,20.83,3.23,31.69,3.42,5.44.1,11,.11,16.43.11H89.72q32.93.17,65.83-.61t65.81-2.17h0L219.14,434a34.47,34.47,0,0,0-7.25-3.35c-1.39-.51-2.85-1-4.36-1.62-.75-.29-1.52-.62-2.29-1s-1.59-.76-2.36-1.19a21.54,21.54,0,0,1-8.12-7.66,14.67,14.67,0,0,1-1.94-5.93,14.18,14.18,0,0,1,.83-6.24,18,18,0,0,1,7.38-8.74,27.22,27.22,0,0,1,9.88-3.51c3.27-.56,6.34-.75,9.35-1l9.07-.67c12.08-.85,24.09-1.56,35.95-3a240.39,240.39,0,0,0,35.1-7.1q4.32-1.2,8.59-2.58a31.47,31.47,0,0,0,7.76-3.32,15.47,15.47,0,0,0,3-2.5c.21-.23.44-.5.62-.72a5.61,5.61,0,0,0,.45-.67,4.65,4.65,0,0,0,.57-1.49c.48-2.12-.38-4.72-1.91-6.85a25.25,25.25,0,0,0-6-5.85,40.8,40.8,0,0,0-7.57-4.18c-5.39-2.35-11.26-4-16.92-6.5a41.47,41.47,0,0,1-8.16-4.66,12.36,12.36,0,0,1-3.4-3.76,7.58,7.58,0,0,1-.89-2.59,7.67,7.67,0,0,1,.16-2.75,9.38,9.38,0,0,1,2.69-4.44,13.59,13.59,0,0,1,4.22-2.59,31.08,31.08,0,0,1,4.49-1.36c1.49-.37,3-.68,4.48-1,12-2.3,24.18-2.54,36.24-2.88l.05,1.12c-12.05.66-24.16,1.24-35.86,3.83-1.46.34-2.91.68-4.35,1.08a29.56,29.56,0,0,0-4.14,1.38,11,11,0,0,0-3.41,2.2,6.86,6.86,0,0,0-1.88,3.25,4.57,4.57,0,0,0,.57,3.4,9.63,9.63,0,0,0,2.74,2.82,38.56,38.56,0,0,0,7.67,4.1c5.44,2.26,11.32,3.71,17.08,6s11.45,5.64,15.48,10.94a15.66,15.66,0,0,1,2.42,4.58,11.1,11.1,0,0,1,.43,5.52,9.4,9.4,0,0,1-1,2.75,9.14,9.14,0,0,1-.78,1.23c-.28.37-.54.69-.83,1a20,20,0,0,1-3.84,3.35,36,36,0,0,1-8.73,4.06c-2.88,1-5.78,2-8.69,2.88a247.61,247.61,0,0,1-35.7,8.23c-12.09,1.84-24.2,2.89-36.2,4.05l-9,.91c-3,.33-6,.62-8.64,1.16a19.68,19.68,0,0,0-7,2.64,10.25,10.25,0,0,0-4.05,4.92,6.05,6.05,0,0,0,.68,5.26,13.47,13.47,0,0,0,5.12,4.41c.56.29,1.1.55,1.71.8s1.25.51,1.91.75c1.31.48,2.71.93,4.17,1.42a41.91,41.91,0,0,1,9.25,4.06l12.27,7.68-14.52.59h0q-33,1.44-66,2.18t-66,.61H73.21c-5.51,0-11,0-16.54-.11-11.08-.2-22.52-.86-33.72-3.69-1.41-.37-2.76-.72-4.2-1.16a32.11,32.11,0,0,1-4.48-1.71,17.94,17.94,0,0,1-4.55-3,13,13,0,0,1-3.43-5.22,13.13,13.13,0,0,1-.53-6.17A15.82,15.82,0,0,1,7.57,411a17,17,0,0,1,1.5-2.32,17.84,17.84,0,0,1,1.8-2,29.12,29.12,0,0,1,3.73-3.08c5.09-3.54,10.39-5.76,15.31-8a154.16,154.16,0,0,1,15.7-6.34A231.25,231.25,0,0,1,78.18,381c5.47-1,10.94-1.91,16.39-2.75l8.18-1.24,4.17-.57,4.16-.5c11.12-1.24,22.21-1.76,33.22-2.2l16.45-.65c2.72-.12,5.45-.26,8.17-.42l8.23-.51c11.11-.61,21.9-.72,32-3.08a28.55,28.55,0,0,0,6.66-2.24,6.62,6.62,0,0,0,1.92-1.41,1.41,1.41,0,0,0,.39-1,2.57,2.57,0,0,0-.47-1.44,8.9,8.9,0,0,0-1.8-2,19.63,19.63,0,0,0-2.72-1.93c-1-.59-2.11-1.14-3.24-1.68a91.44,91.44,0,0,0-14.91-4.9c-2.66-.72-5.38-1.45-8.13-2.34-1.38-.44-2.75-.92-4.13-1.45a19.56,19.56,0,0,1-4.68-2.49A12.34,12.34,0,0,1,174,341.3a11.74,11.74,0,0,1-.87-6.54,13.93,13.93,0,0,1,2.24-5.67,15.13,15.13,0,0,1,.93-1.22,13.18,13.18,0,0,1,1-1.06,21.52,21.52,0,0,1,2-1.7,23.88,23.88,0,0,1,9.28-4,30.42,30.42,0,0,1,9.65-.36Z" transform="translate(-5.61 -44.54)"/><polygon class="cls-2" points="270.92 282.76 316.16 276.09 332.13 280.61 276.8 288.55 270.92 282.76"/></svg>