<svg id="Calque_1" data-name="Calque 1" xmlns="http://www.w3.org/2000/svg" viewBox="0 0 492.99 358.09"><defs><style>.cls-1{fill:#007338;}.cls-2{fill:none;stroke:#007338;stroke-linecap:round;stroke-linejoin:round;stroke-width:0;}</style></defs><title>Circuit</title><path class="cls-1" d="M163.59,306.76c.74-.19,1.52-.32,2.27-.5a165.41,165.41,0,0,1,38.58-4.37c21.22,0,33.29-2.56,35.88-7.61,2.08-4-2.32-10.17-6.2-15.59-2.56-3.59-5-7-5.84-10A15.77,15.77,0,0,1,231,254.83c-25.76.68-50.3,2.34-73.06,4.82L117.88,23.4,96.28,183.73l15.4,68.72-.09,0L70.65,85.32,13,307.71a16.64,16.64,0,0,0-2,7.54c0,18,31.74,34.15,82.14,45.28C107,333.56,131.43,315,163.59,306.76Z" transform="translate(-11 -23.4)"/><path class="cls-1" d="M264.63,289c-2.41-5.67-8.5-8.68-13-12.87-7.43-6.87-4.78-15.89,1.45-21.63q-8.75,0-17.35.22c-2.94,3-5.57,7.44-4,13,.68,2.43,2.93,5.57,5.31,8.9,4.47,6.25,9.54,13.33,6.48,19.28-3.35,6.51-15.76,9.54-39.05,9.54-50.55,0-88.88,20.15-107.72,55.85q16.1,3.42,34.45,6.14c3-16.92,12.89-32.54,29-39.91,13.2-6,28-7.24,42.52-7.93s29.22-1,43.06-5.31c5.67-1.79,11.29-4.36,15.26-8.79S267,294.47,264.63,289Z" transform="translate(-11 -23.4)"/><path class="cls-1" d="M328.12,336.1c4.77-5.91,15.47-21.29,12-36.15-1.94-8.24-8.05-14.79-18.18-19.46-3.62-1.67-6.9-3.13-9.85-4.46-13.47-6-20.23-9.08-21.52-14.15-.54-2.12,0-4.36,1.27-6.81q-6.82-.23-13.77-.37c-3.7,1.74-6.83,4.54-7.9,8.35-1.68,5.93,4.41,10.95,9.69,14.12,14.71,8.83,46.72,18.68,40.43,40.69-4.95,17.32-31,21.91-35.2,39.42-1.52,6.32.37,12.64,3.87,18.23,13.67-.43,27-1.13,39.86-2.08L326,370.49C325.71,370.22,313.28,354.55,328.12,336.1Z" transform="translate(-11 -23.4)"/><path class="cls-1" d="M503.35,311.09l-25.7-167.58-13.3,95.83c3.75,15.66,7.41,31.75,10.64,47.3.07.36.15.73.23,1.1,0,0-.12-.42-.31-1.14-1.58-5.81-9.21-34.07-18.58-71.27l-23.61,50c.32,2.48.62,4.95.9,7.43.76,6.47,1.44,12.93,2,19.28,0,0-1.6-7.37-4.09-19.82-5.63-28.06-15.84-82-22.76-136.18,0,0,.8,3.28,2.12,9l-11.6-67.33L369.45,261.11c-22.73-2.86-47.47-4.89-73.6-5.9-1.58,2.58-2.2,4.44-1.85,5.8.86,3.4,7.89,6.56,19.53,11.78,3,1.33,6.25,2.8,9.88,4.48,11.17,5.15,17.95,12.51,20.15,21.87,3.85,16.38-7.58,32.86-12.67,39.19-13.05,16.23-2.4,29.66-2.29,29.8l4.81,4.94c99-7.9,170.58-30.79,170.58-57.82A15.67,15.67,0,0,0,503.35,311.09Z" transform="translate(-11 -23.4)"/><line class="cls-2" x1="60.59" y1="58.29" x2="60.59" y2="58.29"/><path class="cls-1" d="M274.3,252.88l-.65-.81c-.53.42-1.08.83-1.64,1.23l.6.84C273.19,253.73,273.75,253.32,274.3,252.88Z" transform="translate(-11 -23.4)"/><path class="cls-1" d="M263.6,328.08l.57.87c1.16-.76,2.32-1.58,3.46-2.43l-.63-.83C265.89,326.52,264.74,327.33,263.6,328.08Z" transform="translate(-11 -23.4)"/><path class="cls-1" d="M269.12,256.48l-.57-.87c-1.16.75-2.36,1.53-3.49,2.35l.61.84C266.78,258,268,257.23,269.12,256.48Z" transform="translate(-11 -23.4)"/><path class="cls-1" d="M268.72,280.57c-.57-.3-1.15-.57-1.74-.85l-.44.94,1.71.83c.66.34,1.31.7,1.95,1.07l.53-.89C270.08,281.28,269.4,280.91,268.72,280.57Z" transform="translate(-11 -23.4)"/><path class="cls-1" d="M199.34,374.3c-.07.24-.15.47-.21.71l1,.25c.07-.31.18-.6.26-.9.28-1,.57-2.07.91-3.07l-1-.34C200,372,199.63,373.17,199.34,374.3Z" transform="translate(-11 -23.4)"/><path class="cls-1" d="M276.06,317.23l.82.65a33.94,33.94,0,0,0,2.44-3.47l-.89-.54A31.47,31.47,0,0,1,276.06,317.23Z" transform="translate(-11 -23.4)"/><path class="cls-1" d="M273,320.56c-.88.86-1.82,1.71-2.79,2.54l.67.79c1-.84,1.94-1.71,2.83-2.57A3.83,3.83,0,0,0,274,321l-.74-.74Z" transform="translate(-11 -23.4)"/><path class="cls-1" d="M280.34,310.23l1,.42a27.14,27.14,0,0,0,1.4-4l-1-.26A26.17,26.17,0,0,1,280.34,310.23Z" transform="translate(-11 -23.4)"/><path class="cls-1" d="M282.19,298.28a17.46,17.46,0,0,1,.2,2.73c0,.44,0,.89,0,1.33l1,.06c0-.46,0-.92,0-1.39a21.14,21.14,0,0,0-.2-2.89Z" transform="translate(-11 -23.4)"/><path class="cls-1" d="M277.43,286.87a28,28,0,0,0-3.18-2.83l-.63.82a27.77,27.77,0,0,1,3.06,2.74Z" transform="translate(-11 -23.4)"/><path class="cls-1" d="M259.31,276.16a13.87,13.87,0,0,0,3.45,2.6l.51-.9a13.15,13.15,0,0,1-3.2-2.41Z" transform="translate(-11 -23.4)"/><path class="cls-1" d="M232.49,339.48l.38,1c1.28-.5,2.6-1,3.92-1.37l-.31-1C235.14,338.51,233.8,339,232.49,339.48Z" transform="translate(-11 -23.4)"/><path class="cls-1" d="M224.84,343l.51.91c1.18-.65,2.43-1.28,3.7-1.86l-.43-.94C227.32,341.71,226.05,342.35,224.84,343Z" transform="translate(-11 -23.4)"/><path class="cls-1" d="M240.54,337l.25,1c1.33-.33,2.7-.62,4.06-.86l-.18-1C243.28,336.33,241.89,336.63,240.54,337Z" transform="translate(-11 -23.4)"/><path class="cls-1" d="M248.69,335.16l.28,1c1.32-.38,2.67-.84,4-1.36l-.38-1C251.29,334.34,250,334.79,248.69,335.16Z" transform="translate(-11 -23.4)"/><path class="cls-1" d="M258.24,272.05a8,8,0,0,1-.2-1.79,9.66,9.66,0,0,1,.25-2.12l-1-.24a10.63,10.63,0,0,0-.28,2.36,9.09,9.09,0,0,0,.23,2Z" transform="translate(-11 -23.4)"/><path class="cls-1" d="M217.75,347.57l.62.83c1.1-.82,2.25-1.62,3.4-2.36l-.56-.88C220,345.92,218.86,346.73,217.75,347.57Z" transform="translate(-11 -23.4)"/><path class="cls-1" d="M211.41,353.14l.75.72c.94-1,1.91-1.89,2.87-2.74l.13-.11-.8-.68C213.36,351.21,212.37,352.16,211.41,353.14Z" transform="translate(-11 -23.4)"/><path class="cls-1" d="M260.32,263.79a17.5,17.5,0,0,1,2.15-2.4l-.72-.76a18.91,18.91,0,0,0-2.27,2.54q-.27.36-.51.75l.88.55C260,264.24,260.16,264,260.32,263.79Z" transform="translate(-11 -23.4)"/><path class="cls-1" d="M256.4,332.18l.45.93c1.25-.6,2.51-1.26,3.73-2l-.51-.9C258.87,330.93,257.63,331.58,256.4,332.18Z" transform="translate(-11 -23.4)"/><path class="cls-1" d="M281.15,294.36l1-.37c-.09-.25-.2-.5-.31-.75a19.17,19.17,0,0,0-1.69-3.05l-.86.58a18.75,18.75,0,0,1,1.6,2.89C281,293.9,281.06,294.13,281.15,294.36Z" transform="translate(-11 -23.4)"/><path class="cls-1" d="M201.9,367l.95.43c.56-1.24,1.19-2.48,1.87-3.69l-.9-.51C203.12,364.49,202.47,365.76,201.9,367Z" transform="translate(-11 -23.4)"/><path class="cls-1" d="M206.06,359.68l.87.58c.76-1.11,1.6-2.23,2.48-3.31l-.81-.65C207.7,357.39,206.85,358.53,206.06,359.68Z" transform="translate(-11 -23.4)"/><path class="cls-1" d="M198.06,381.41l1,.08c.06-.68.14-1.36.23-2l-1-.13C198.21,380,198.13,380.71,198.06,381.41Z" transform="translate(-11 -23.4)"/></svg>