<svg id="Calque_1" data-name="Calque 1" xmlns="http://www.w3.org/2000/svg" viewBox="0 0 490.05 423.99"><defs><style>.cls-1{fill:none;}.cls-2{fill:#007338;}</style></defs><title>Communes</title><path class="cls-1" d="M247.5,171.56a42.77,42.77,0,0,1,5.88-1.45H236.69v6.75a41.35,41.35,0,0,1,6.29-3.58A44.16,44.16,0,0,1,247.5,171.56Z" transform="translate(-10.95 -36.69)"/><polygon class="cls-1" points="236.55 114.59 242.51 114.59 242.51 99.91 236.55 99.91 232.03 99.91 225.74 99.91 225.74 114.59 232.03 114.59 236.55 114.59"/><polygon class="cls-1" points="236.55 129.62 242.51 129.62 242.51 118.39 236.55 118.39 232.03 118.39 225.74 118.39 225.74 129.62 232.03 129.62 236.55 129.62"/><path class="cls-1" d="M214.52,134.41H166.94v97.06a34.66,34.66,0,0,1,3.75,3L207.61,202l1.42-1.25,5.49-4.83V179.56a25.54,25.54,0,1,1-10.08-41.48,24.37,24.37,0,0,1,4.15,1.9c.15.08.3.18.44.27a25.73,25.73,0,0,1,5.49,4.42Z" transform="translate(-10.95 -36.69)"/><polygon class="cls-1" points="209.86 22.17 188.73 22.17 209.86 46.88 209.86 22.17"/><rect class="cls-1" x="124.29" y="93.29" width="9.53" height="8.1"/><path class="cls-1" d="M144.77,112.24H147l3-3.48H142.2V105h11l39.41-46.1H135.25V76.24h6.95V80h-6.95v45.9l9.52-11.14ZM153,78.14v-1.9h16.6V80H153Z" transform="translate(-10.95 -36.69)"/><path class="cls-1" d="M176.64,162.11a19.3,19.3,0,0,0,15.78,18.94,17.52,17.52,0,0,0,1.93.19c.53,0,1,.16,1.59.16s1.05-.11,1.58-.16a18.93,18.93,0,0,0,10-3.8,19.23,19.23,0,0,0,7-10.44v-9.78a19.25,19.25,0,0,0-37.88,4.89Z" transform="translate(-10.95 -36.69)"/><polygon class="cls-1" points="133.82 105.19 124.3 105.19 124.3 120.01 127.54 120.01 127.54 121.91 127.54 123.81 124.3 123.81 124.3 140.75 133.82 140.75 133.82 105.19"/><polygon class="cls-1" points="169.77 70.17 168.97 71.11 175.27 71.11 193.48 71.11 201.4 71.11 200.6 70.17 198.97 68.27 185.19 52.15 171.4 68.27 169.77 70.17"/><path class="cls-1" d="M344.42,109.38h13.83v3.32H344.42v11h.92V127h-.92v10.89h9.22v3.32h-9.22v12.52h.92v3.32h-.92v12.52h.92v3.33h-.92v10.89h.92v3.32h-.92v11.7h11.73v3.33H344.42V211h11.73v3.32H344.42v19.77l3.62,3.51,4.33-3.82a36.11,36.11,0,0,1,48.77,1.2l9.79,9.52V214.34h-9.16V211h9.16v-8.86h-9.16v-3.33h9.16v-57.6H399.27v-3.32h11.66V112.7h-7.06v-3.32h7.06V79.8H395.57V76.47h15.36V65.36H325.37V86.24h19.05Zm32,114.31H359.85v-3.33h16.61ZM391,198.83v3.33H374.35v-3.33Zm-2.5-57.6H371.85v-3.32h16.61Zm-12-28.53v-3.32h16.6v3.32Zm3.7,11V127H363.55v-3.33Zm0,30.06v3.32H363.55v-3.32Zm0,15.84v3.33H363.55v-3.33Zm0,14.22v3.32H363.55v-3.32Zm-5.81,30.53V211H391v3.32Zm29.52,6v3.33h-16.6v-3.33Zm3.71-33.23H391v-3.32h16.62Zm0-14.21H391v-3.33h16.62Zm0-19.17v3.32H391v-3.32Zm0-30.06V127H391v-3.33Zm-12-23.62v1.66H379V98.41h16.61ZM368.15,78.14V76.47h16.61V79.8H368.15ZM351.54,98.41h16.61v3.32H351.54ZM333.33,79.8V76.47h16.61V79.8Z" transform="translate(-10.95 -36.69)"/><path class="cls-1" d="M257.26,130v39.65a42.41,42.41,0,0,1,32.88,11.76l6.11,5.94V112.94h-39v17Z" transform="translate(-10.95 -36.69)"/><polygon class="cls-1" points="311.3 133.42 303.33 133.42 292.25 133.42 289.1 133.42 289.1 146.88 292.25 146.88 303.33 146.88 311.3 146.88 311.3 133.42"/><polygon class="cls-1" points="236.55 96.11 242.51 96.11 242.51 93.29 242.51 85.08 242.51 72.45 289.1 72.45 289.1 96.11 292.25 96.11 303.33 96.11 311.3 96.11 311.3 71.73 303.33 71.73 292.25 71.73 232.03 71.73 231.09 71.73 225.74 71.73 225.74 75.55 225.74 93.29 225.74 96.11 232.03 96.11 236.55 96.11"/><polygon class="cls-1" points="292.25 150.68 289.1 150.68 289.1 154.32 292.25 157.38 303.33 168.15 311.3 175.88 311.3 150.68 303.33 150.68 292.25 150.68"/><polygon class="cls-1" points="311.3 99.91 303.33 99.91 292.25 99.91 289.1 99.91 289.1 114.59 292.25 114.59 303.33 114.59 311.3 114.59 311.3 99.91"/><polygon class="cls-1" points="311.3 118.39 303.33 118.39 292.25 118.39 289.1 118.39 289.1 129.62 292.25 129.62 303.33 129.62 311.3 129.62 311.3 118.39"/><path class="cls-1" d="M344.42,265l-5.1-4.95-6-5.81-2-1.93-6-5.81-3.12-3-8-7.74L303.2,225l-3.14-3.05-1.9-1.85-1.91-1.84-21.56-20.95a20.24,20.24,0,0,0-17.43-5.38,18.87,18.87,0,0,0-1.9.48c-.64.17-1.28.32-1.9.55a19.9,19.9,0,0,0-6,3.52l-.22.16-4.3,3.78-6.29,5.54-.27.24-4.53,4-6.29,5.54-.27.24-4.52,4-6.29,5.54-16.29,14.34-.57.5-11,9.67-2.82,2.49-2.16,1.9-.07.06-3.3,2.9L170,264.66l0,0-2.16,1.9-.85.75-1.31,1.16-9,8H356.2l-8.9-8.64Z" transform="translate(-10.95 -36.69)"/><path class="cls-1" d="M376.36,356.8h-7.94v38.36a28.66,28.66,0,0,1,7.94-1.23Z" transform="translate(-10.95 -36.69)"/><path class="cls-1" d="M378.58,441.15l.67-.18a5.76,5.76,0,0,0,1.55-.77,6.9,6.9,0,0,0,1.85-1.69,8.41,8.41,0,0,0,1.65-5,8.23,8.23,0,0,0-2.26-5.77l-.91-.93.25-1.27a9.21,9.21,0,0,0,.18-1.76,8.6,8.6,0,0,0-.76-3.49,7.4,7.4,0,0,0-2.22-2.89,6.46,6.46,0,0,0-2.95-1.23l-2-.21-.16-2a7.39,7.39,0,0,0-5-6.73v42.86a8.11,8.11,0,0,0,2.06-.47,8.62,8.62,0,0,0,1.13-.46A9.34,9.34,0,0,0,376,444l.21-.6.11-.1.36-.32c.48-.44.94-.89,1.38-1.36l.47-.51Z" transform="translate(-10.95 -36.69)"/><polygon class="cls-1" points="232.03 299.54 225.74 299.54 225.46 299.54 225.26 299.54 225.26 401.82 225.26 404.89 225.26 410.5 232.03 410.5 236.55 410.5 270.01 410.5 270.01 401.82 270.01 299.54 236.55 299.54 232.03 299.54"/><polygon class="cls-1" points="322.38 261.94 314.42 261.94 311.3 261.94 303.33 261.94 301.35 261.94 292.25 261.94 284.57 261.94 267.79 261.94 236.55 261.94 232.03 261.94 225.81 261.94 225.74 261.94 225.46 261.94 220.94 261.94 214.65 261.94 214.38 261.94 209.9 261.94 209.86 261.94 203.56 261.94 193.99 261.94 158.58 261.94 158.58 273.15 158.58 284.24 158.58 295.33 158.58 360.86 158.58 363.94 158.58 367.07 158.58 393.8 158.58 401.82 178.8 401.82 186.03 401.82 190.54 401.82 200.99 401.82 203.56 401.82 212.07 401.82 214.65 401.82 216.4 401.82 216.4 295.33 216.4 290.68 220.94 290.68 223.16 290.68 225.46 290.68 225.74 290.68 232.03 290.68 235.15 290.68 236.55 290.68 255.4 290.68 272.95 290.68 278.88 290.68 278.88 295.33 278.88 401.82 284.04 401.82 292.25 401.82 295.12 401.82 303.33 401.82 311.3 401.82 314.42 401.82 316.44 401.82 318.09 401.82 318.88 401.82 321.31 401.82 321.64 401.82 322.38 401.82 325.24 401.82 333.47 401.82 335.29 401.82 335.29 373.33 335.29 373.3 335.29 370.9 335.29 368.46 335.29 367.9 335.29 363.51 335.29 295.33 335.29 284.24 335.29 273.15 335.29 261.94 333.47 261.94 322.38 261.94"/><rect class="cls-1" x="124.29" y="144.56" width="9.53" height="16.94"/><path class="cls-1" d="M422,332h-53.6v20.34H380.8v41.81a30.35,30.35,0,0,1,5.77,1.24,22.38,22.38,0,0,1,10.32-2.46,21,21,0,0,1,14,5,14.47,14.47,0,0,1,4.15,6,21.07,21.07,0,0,1,6.94,2.56c4.75,2.76,7.81,7.22,7.81,12.31a11.81,11.81,0,0,1-.06,1.18,15,15,0,0,1,3.33,4.33,12.22,12.22,0,0,1,0,11.62,14.07,14.07,0,0,1-1.65,2.53h10.36V332H422Z" transform="translate(-10.95 -36.69)"/><path class="cls-1" d="M422,286.2l-11.09-10.77-25.24-24.52a13.8,13.8,0,0,0-18.66-.46l-3,2.67,46.85,45.5H368.42v11.22h77.94L433.1,297Z" transform="translate(-10.95 -36.69)"/><path class="cls-1" d="M424,424.31,422,423l-.1-.07.1-.33.6-2.08a5.78,5.78,0,0,0,.25-1.63,6,6,0,0,0-.85-3c-1.63-2.81-5.44-4.91-10-5.22l-1.1-.07-1.79-.12-.33-2.88c-.49-4.21-5.83-7.64-11.92-7.64a14.91,14.91,0,0,0-8.08,2.24l-1.5,1-1.66-.65a23.49,23.49,0,0,0-4.85-1.25c-.56-.09-1.1-.21-1.67-.27-.19,0-.37,0-.55,0-.75-.05-1.49-.06-2.22-.05a21.46,21.46,0,0,0-7.31,1.44,11.49,11.49,0,0,1,7.31,5.29,12.94,12.94,0,0,1,1.67,4.07c.19.06.37.15.55.22A10.17,10.17,0,0,1,380.8,413a12.71,12.71,0,0,1,5.66,10.81,14.36,14.36,0,0,1-.08,1.48,13.34,13.34,0,0,1,2.82,8.25,13.52,13.52,0,0,1-1,5,11.83,11.83,0,0,1-7,7c-.13.14-.27.27-.41.4l-.35.35a13.5,13.5,0,0,1-1.87,3.19c0,.06-.09.11-.13.16s-.21.28-.32.41a23.75,23.75,0,0,0,2.67-.13c.75-.08,1.49-.13,2.22-.28a21.89,21.89,0,0,0,3.65-1l.92-.22c1-.09,2-.19,2.93-.31l.67-.08.66.18c8.55,2.33,18.8-.82,21.61-6.34l.45-.89.86-.51c.84-.5,1.63-1,2.38-1.58l.41-.29.24-.18.78-.14a14.7,14.7,0,0,0,3.44-1.06c3.37-1.51,5.6-4.13,5.6-6.95S425.35,425.24,424,424.31Z" transform="translate(-10.95 -36.69)"/><path class="cls-1" d="M117.75,438.51c0-.18-.11-.35-.14-.53a12.73,12.73,0,0,1,.16-4.21,13.16,13.16,0,0,1,.5-1.81c-.4-.36-.78-.74-1.14-1.13a18.45,18.45,0,0,1-4-6.59,12.94,12.94,0,0,1-.42-7.37,9.34,9.34,0,0,1,.42-1.11,12.71,12.71,0,0,1,7-7.36,17.35,17.35,0,0,1,4.12-1.19,19.52,19.52,0,0,1,4.08-.29,14.28,14.28,0,0,1,1.93-2,12.61,12.61,0,0,0-3.23-.85,12.28,12.28,0,0,0-2.78,0,10.78,10.78,0,0,0-5.09,1.88l-.95.7-1.16-.24c-.42-.08-.84-.17-1.28-.21a12.55,12.55,0,0,0-2.6,0,10.58,10.58,0,0,0-5.63,2.17,7.78,7.78,0,0,0-2.2,2.76l-.84,1.75-1.92-.25a11.48,11.48,0,0,0-1.53-.11,8.79,8.79,0,0,0-4,.89,6.34,6.34,0,0,0-3.35,4.36c-.56,2.62.4,5.78,2.58,8.46a15.78,15.78,0,0,0,1.84,1.91l1.54,1.34-.89,1.83a9.16,9.16,0,0,0-.78,2.39,7.78,7.78,0,0,0-.08,2.3,7,7,0,0,0,.84,2.51A7.24,7.24,0,0,0,101,441a9.87,9.87,0,0,0,5.61,1.61h1.34l.8,1.09a7.6,7.6,0,0,0,1.8,1.73,9,9,0,0,0,2.55,1.12,11.62,11.62,0,0,0,5.79.18,14.47,14.47,0,0,0,1.8-.54l.89-.33.9.31.16,0A12.65,12.65,0,0,1,117.75,438.51Z" transform="translate(-10.95 -36.69)"/><path class="cls-1" d="M144.77,220.61h-9.52v6a36.46,36.46,0,0,1,9.52-1.67Z" transform="translate(-10.95 -36.69)"/><path class="cls-1" d="M144.77,247.17a13.6,13.6,0,0,0-7.61,3.28l-1.91,1.68-.36.32-2.16,1.9-2.16,1.9-6.41,5.64-11.08,9.76L69.69,309.84h77.67V298.62H97.84l15.24-13.41,11.08-9.76,9.73-8.56.35-.31,1-.89,1.15-1,8.37-7.37,2-1.79,1.33-1.17,2.17-1.9,3.54-3.13A13.85,13.85,0,0,0,144.77,247.17Z" transform="translate(-10.95 -36.69)"/><rect class="cls-1" x="124.29" y="165.3" width="9.53" height="14.81"/><path class="cls-1" d="M139.42,356.8v41a13.34,13.34,0,0,1,5.35,1.26,13.2,13.2,0,0,1,2.22,1.28c.12-.07.25-.11.37-.17V356.8h-7.94Z" transform="translate(-10.95 -36.69)"/><path class="cls-1" d="M135.25,332h-59v106.5H93a12.07,12.07,0,0,1-.44-1.89,13.49,13.49,0,0,1,.13-3.85,14.64,14.64,0,0,1,.49-1.95c-.38-.4-.75-.81-1.1-1.24-3.22-4-4.55-8.69-3.64-12.92a11.56,11.56,0,0,1,6.12-8,15,15,0,0,1,6.81-1.48,13.29,13.29,0,0,1,2.74-3,15.86,15.86,0,0,1,9-3.38,17.83,17.83,0,0,1,3.18,0l.66.09a16.13,16.13,0,0,1,7.24-2.27,17.16,17.16,0,0,1,7.87,1.12A13.3,13.3,0,0,1,135,398.5V352.35h12.38V332H135.25Z" transform="translate(-10.95 -36.69)"/><path class="cls-1" d="M145.55,406.3l-.26,0c-.17,0-.34,0-.52,0a17.17,17.17,0,0,0-5.35.43,14.43,14.43,0,0,0-2.22.73,11.47,11.47,0,0,0-1.95,1.08,2.53,2.53,0,0,0-.23.12l0,0a8.33,8.33,0,0,0-2.59,2.82l-1,1.76-2-.24a18.28,18.28,0,0,0-1.93-.11,13.27,13.27,0,0,0-3.34.46,11,11,0,0,0-1.68.52,6.73,6.73,0,0,0-4,4.45c-.64,2.57.5,5.72,3,8.44a16.71,16.71,0,0,0,2.22,2l.45.35,1.63,1.22-1.26,2.28a7,7,0,0,0-.37,1,9.05,9.05,0,0,0-.54,1.41,6.71,6.71,0,0,0-.09,2.22,6.17,6.17,0,0,0,.36,1.34c.08.19.18.36.27.54a7.43,7.43,0,0,0,2.15,2.53,9.86,9.86,0,0,0,.94.68,13.87,13.87,0,0,0,7,1.75h1.38l.9,1.05c.14.17.36.28.51.43l.12.1a8.5,8.5,0,0,0,1.55,1.29c.21.12.45.19.67.3l.42.19a12.75,12.75,0,0,0,2.84.91,15.49,15.49,0,0,0,2.09.27,18.73,18.73,0,0,0,2.59,0V406.58l-.46-.09C146.46,406.41,146,406.35,145.55,406.3Z" transform="translate(-10.95 -36.69)"/><polygon class="cls-2" points="158.66 41.45 158.66 39.55 142.05 39.55 142.05 41.45 142.05 43.35 158.66 43.35 158.66 41.45"/><path class="cls-2" d="M433.1,266.06V43.19H303.2V86.24H243V36.69H113.08V242.11L11,332H54V460.68H464V332h37ZM325.37,65.36h85.56V76.47H395.57V79.8h15.36v29.58h-7.06v3.32h7.06v25.21H399.27v3.32h11.66v57.6h-9.16v3.33h9.16V211h-9.16v3.32h9.16v30.18L401.14,235a36.11,36.11,0,0,0-48.77-1.2L348,237.62l-3.62-3.51V214.34h11.73V211H344.42v-8.86h11.73v-3.33H344.42v-11.7h.92v-3.32h-.92V172.92h.92v-3.33h-.92V157.07h.92v-3.32h-.92V141.23h9.22v-3.32h-9.22V127h.92v-3.33h-.92v-11h13.83v-3.32H344.42V86.24H325.37ZM236.69,130V108.41h85.56V132.8H300.06V109.14h-46.6V132.8H236.69Zm77.6,53.6H300.06V170.11h22.19v13.46Zm8,3.8v25.2l-8-7.74L303.2,194.07,300.06,191v-3.64h22.19Zm-8-21.06H300.06V155.08h22.19v11.23Zm0-15H300.06V136.6h22.19v14.68Zm-18-38.34v74.38l-6.11-5.94a42.41,42.41,0,0,0-32.88-11.76V112.94ZM236.69,136.6h16.77v14.68H236.69Zm0,18.48h16.77v11.23H236.69Zm0,15h16.69a42.77,42.77,0,0,0-5.88,1.45,44.16,44.16,0,0,0-4.52,1.72,41.35,41.35,0,0,0-6.29,3.58ZM220.81,58.86V83.57L199.68,58.86ZM209,140.25c-.14-.09-.29-.19-.44-.27a24.37,24.37,0,0,0-4.15-1.9,25.23,25.23,0,0,0-8.5-1.49,25.53,25.53,0,1,0,18.58,43v16.35L209,200.74,207.61,202l-36.92,32.5a34.66,34.66,0,0,0-3.75-3V134.41h47.58v10.26A25.73,25.73,0,0,0,209,140.25Zm5.49,17V167a19.23,19.23,0,0,1-7,10.44,18.93,18.93,0,0,1-10,3.8c-.53,0-1,.16-1.58.16s-1.06-.11-1.59-.16a17.52,17.52,0,0,1-1.93-.19,19.27,19.27,0,1,1,22.1-23.83ZM209.92,105l1.63,1.9.81.94H179.92l.8-.94,1.63-1.9,13.79-16.13ZM135.25,80h6.95v-3.8h-6.95V58.86h57.34L153.18,105h-11v3.8h7.73l-3,3.48h-2.19v2.56l-9.52,11.14Zm0,49.93h9.52v8.11h-9.52Zm0,30.53h3.24v-3.8h-3.24V141.88h9.52v35.56h-9.52Zm0,20.74h9.52v16.95h-9.52Zm0,20.75h9.52V216.8h-9.52Zm0,18.62h9.52V225a36.46,36.46,0,0,0-9.52,1.67ZM122.46,446.2l-.9-.31-.89.33a14.47,14.47,0,0,1-1.8.54,11.62,11.62,0,0,1-5.79-.18,9,9,0,0,1-2.55-1.12,7.6,7.6,0,0,1-1.8-1.73l-.8-1.09h-1.34A9.87,9.87,0,0,1,101,441a7.24,7.24,0,0,1-2.29-2.52,7,7,0,0,1-.84-2.51,7.78,7.78,0,0,1,.08-2.3,9.16,9.16,0,0,1,.78-2.39l.89-1.83-1.54-1.34a15.78,15.78,0,0,1-1.84-1.91c-2.18-2.68-3.14-5.84-2.58-8.46A6.34,6.34,0,0,1,97,413.41a8.79,8.79,0,0,1,4-.89,11.48,11.48,0,0,1,1.53.11l1.92.25.84-1.75a7.78,7.78,0,0,1,2.2-2.76,10.58,10.58,0,0,1,5.63-2.17,12.55,12.55,0,0,1,2.6,0c.44,0,.86.13,1.28.21l1.16.24.95-.7a10.78,10.78,0,0,1,5.09-1.88,12.28,12.28,0,0,1,2.78,0,12.61,12.61,0,0,1,3.23.85,14.28,14.28,0,0,0-1.93,2,19.52,19.52,0,0,0-4.08.29A17.35,17.35,0,0,0,120,408.4a12.71,12.71,0,0,0-7,7.36,9.34,9.34,0,0,0-.42,1.11,12.94,12.94,0,0,0,.42,7.37,18.45,18.45,0,0,0,4,6.59c.36.39.74.77,1.14,1.13a13.16,13.16,0,0,0-.5,1.81,12.73,12.73,0,0,0-.16,4.21c0,.18.11.35.14.53a12.65,12.65,0,0,0,4.87,7.73Zm24.9-34v36.35a18.73,18.73,0,0,1-2.59,0,15.49,15.49,0,0,1-2.09-.27,12.75,12.75,0,0,1-2.84-.91l-.42-.19c-.22-.11-.46-.18-.67-.3a8.5,8.5,0,0,1-1.55-1.29l-.12-.1c-.15-.15-.37-.26-.51-.43l-.9-1.05h-1.38a13.87,13.87,0,0,1-7-1.75,9.86,9.86,0,0,1-.94-.68,7.43,7.43,0,0,1-2.15-2.53c-.09-.18-.19-.35-.27-.54a6.17,6.17,0,0,1-.36-1.34,6.71,6.71,0,0,1,.09-2.22,9.05,9.05,0,0,1,.54-1.41,7,7,0,0,1,.37-1l1.26-2.28-1.63-1.22-.45-.35a16.71,16.71,0,0,1-2.22-2c-2.53-2.72-3.67-5.87-3-8.44a6.73,6.73,0,0,1,4-4.45,11,11,0,0,1,1.68-.52,13.27,13.27,0,0,1,3.34-.46,18.28,18.28,0,0,1,1.93.11l2,.24,1-1.76a8.33,8.33,0,0,1,2.59-2.82l0,0a2.53,2.53,0,0,1,.23-.12,11.47,11.47,0,0,1,1.95-1.08,14.43,14.43,0,0,1,2.22-.73,17.17,17.17,0,0,1,5.35-.43c.18,0,.35,0,.52,0l.26,0c.46.05.91.11,1.35.19l.46.09Zm0-12c-.12.06-.25.1-.37.17a13.2,13.2,0,0,0-2.22-1.28,13.34,13.34,0,0,0-5.35-1.26v-41h7.94Zm0-47.85H135V398.5a13.3,13.3,0,0,0-2.95,1.34,17.16,17.16,0,0,0-7.87-1.12,16.13,16.13,0,0,0-7.24,2.27l-.66-.09a17.83,17.83,0,0,0-3.18,0,15.86,15.86,0,0,0-9,3.38,13.29,13.29,0,0,0-2.74,3,15,15,0,0,0-6.81,1.48,11.56,11.56,0,0,0-6.12,8c-.91,4.23.42,8.94,3.64,12.92.35.43.72.84,1.1,1.24a14.64,14.64,0,0,0-.49,1.95,13.49,13.49,0,0,0-.13,3.85,12.07,12.07,0,0,0,.44,1.89H76.21V332h71.15Zm2.94-99.9-2.17,1.9-1.33,1.17-2,1.79-8.37,7.37-1.15,1-1,.89-.35.31-9.73,8.56-11.08,9.76L97.84,298.62h49.52v11.22H69.69l43.39-38.19,11.08-9.76,6.41-5.64,2.16-1.9,2.16-1.9.36-.32,1.91-1.68a13.6,13.6,0,0,1,7.61-3.28,13.85,13.85,0,0,1,9.07,2.15ZM281,438.51v8.68H236.22v-111H281Zm65.29-128.67V438.51H289.83V327.36H227.35V438.51H169.53V298.62H346.25Zm-1.83-33.39H156.58l9-8,1.31-1.16.85-.75,2.16-1.9,0,0,8.34-7.35,3.3-2.9.07-.06,2.16-1.9,2.82-2.49,11-9.67.57-.5,16.29-14.34,6.29-5.54,4.52-4,.27-.24,6.29-5.54,4.53-4,.27-.24,6.29-5.54,4.3-3.78.22-.16a19.9,19.9,0,0,1,6-3.52c.62-.23,1.26-.38,1.9-.55a18.87,18.87,0,0,1,1.9-.48,20.24,20.24,0,0,1,17.43,5.38l21.56,20.95,1.91,1.84,1.9,1.85L303.2,225l11.09,10.77,8,7.74,3.12,3,6,5.81,2,1.93,6,5.81,5.1,4.95,2.88,2.8,8.9,8.64ZM376.72,443l-.36.32-.11.1-.21.6a9.34,9.34,0,0,1-4.43,5.09,8.62,8.62,0,0,1-1.13.46,8.11,8.11,0,0,1-2.06.47V407.2a7.39,7.39,0,0,1,5,6.73l.16,2,2,.21a6.46,6.46,0,0,1,2.95,1.23,7.4,7.4,0,0,1,2.22,2.89,8.6,8.6,0,0,1,.76,3.49,9.21,9.21,0,0,1-.18,1.76l-.25,1.27.91.93a8.23,8.23,0,0,1,2.26,5.77,8.41,8.41,0,0,1-1.65,5,6.9,6.9,0,0,1-1.85,1.69,5.76,5.76,0,0,1-1.55.77l-.67.18h0l-.47.51C377.66,442.13,377.2,442.58,376.72,443Zm45.3-5.89a14.7,14.7,0,0,1-3.44,1.06l-.78.14-.24.18-.41.29c-.75.55-1.54,1.08-2.38,1.58l-.86.51-.45.89c-2.81,5.52-13.06,8.67-21.61,6.34l-.66-.18-.67.08c-1,.12-1.95.22-2.93.31l-.92.22a21.89,21.89,0,0,1-3.65,1c-.73.15-1.47.2-2.22.28a23.75,23.75,0,0,1-2.67.13c.11-.13.22-.27.32-.41s.09-.1.13-.16a13.5,13.5,0,0,0,1.87-3.19l.35-.35c.14-.13.28-.26.41-.4a11.83,11.83,0,0,0,7-7,13.52,13.52,0,0,0,1-5,13.34,13.34,0,0,0-2.82-8.25,14.36,14.36,0,0,0,.08-1.48A12.71,12.71,0,0,0,380.8,413a10.17,10.17,0,0,0-2.22-1.09c-.18-.07-.36-.16-.55-.22a12.94,12.94,0,0,0-1.67-4.07,11.49,11.49,0,0,0-7.31-5.29,21.46,21.46,0,0,1,7.31-1.44c.73,0,1.47,0,2.22.05.18,0,.36,0,.55,0,.57.06,1.11.18,1.67.27a23.49,23.49,0,0,1,4.85,1.25l1.66.65,1.5-1a14.91,14.91,0,0,1,8.08-2.24c6.09,0,11.43,3.43,11.92,7.64l.33,2.88,1.79.12,1.1.07c4.55.31,8.36,2.41,10,5.22a6,6,0,0,1,.85,3,5.78,5.78,0,0,1-.25,1.63l-.6,2.08-.1.33.1.07,2,1.35c1.35.93,3.62,2.93,3.62,5.87S425.39,435.62,422,437.13Zm-53.6-42V356.8h7.94v37.13A28.66,28.66,0,0,0,368.42,395.16Zm73.39,43.35H431.45A14.07,14.07,0,0,0,433.1,436a12.22,12.22,0,0,0,0-11.62,15,15,0,0,0-3.33-4.33,11.81,11.81,0,0,0,.06-1.18c0-5.09-3.06-9.55-7.81-12.31a21.07,21.07,0,0,0-6.94-2.56,14.47,14.47,0,0,0-4.15-6,21,21,0,0,0-14-5,22.38,22.38,0,0,0-10.32,2.46,30.35,30.35,0,0,0-5.77-1.24V352.35H368.42V332h73.39ZM433.1,309.84H368.42V298.62h42.42L364,253.12l3-2.67a13.8,13.8,0,0,1,18.66.46l25.24,24.52L422,286.2,433.1,297l13.26,12.88Z" transform="translate(-10.95 -36.69)"/><polygon class="cls-2" points="338.99 41.45 338.99 39.79 322.38 39.79 322.38 43.11 338.99 43.11 338.99 41.45"/><polygon class="cls-2" points="373.81 41.45 373.81 39.79 357.2 39.79 357.2 41.45 357.2 43.11 373.81 43.11 373.81 41.45"/><rect class="cls-2" x="340.59" y="61.72" width="16.61" height="3.33"/><polygon class="cls-2" points="368.01 63.38 368.01 65.04 384.62 65.04 384.62 63.38 384.62 61.72 368.01 61.72 368.01 63.38"/><polygon class="cls-2" points="382.11 74.35 382.11 72.69 365.51 72.69 365.51 74.35 365.51 76.01 382.11 76.01 382.11 74.35"/><rect class="cls-2" x="352.59" y="87" width="16.61" height="3.33"/><polygon class="cls-2" points="380.01 88.67 380.01 90.33 396.62 90.33 396.62 87 380.01 87 380.01 88.67"/><rect class="cls-2" x="360.9" y="101.22" width="16.61" height="3.33"/><rect class="cls-2" x="352.59" y="117.06" width="16.61" height="3.33"/><polygon class="cls-2" points="380.01 118.72 380.01 120.39 396.62 120.39 396.62 117.06 380.01 117.06 380.01 118.72"/><rect class="cls-2" x="352.59" y="132.9" width="16.61" height="3.33"/><polygon class="cls-2" points="380.01 134.56 380.01 136.23 396.62 136.23 396.62 132.9 380.01 132.9 380.01 134.56"/><rect class="cls-2" x="352.59" y="147.12" width="16.61" height="3.33"/><polygon class="cls-2" points="380.01 148.78 380.01 150.44 396.62 150.44 396.62 147.12 380.01 147.12 380.01 148.78"/><rect class="cls-2" x="363.4" y="162.15" width="16.61" height="3.33"/><rect class="cls-2" x="363.4" y="174.33" width="16.61" height="3.33"/><polygon class="cls-2" points="348.89 185.34 348.89 187 365.51 187 365.51 183.68 348.89 183.68 348.89 185.34"/><polygon class="cls-2" points="376.31 185.34 376.31 187 392.92 187 392.92 185.34 392.92 183.68 376.31 183.68 376.31 185.34"/></svg>