<svg id="Calque_1" data-name="Calque 1" xmlns="http://www.w3.org/2000/svg" viewBox="0 0 493.17 407.62"><defs><style>.cls-1{fill:none;}.cls-2{fill:#007338;}.cls-3{fill:#fff;}</style></defs><title>iles</title><path class="cls-1" d="M305.36,359.09l.26-.32a1.63,1.63,0,0,0-2.3-2.3l-.32.27C301.35,358.11,304,360.74,305.36,359.09Z" transform="translate(-9.83 -47.4)"/><path class="cls-1" d="M424.26,359.05a8.7,8.7,0,0,0-2.58-2.69c-.91-.79-2.24.51-1.34,1.33a9.13,9.13,0,0,0,3.15,2.36C424.11,360.25,424.49,359.55,424.26,359.05Z" transform="translate(-9.83 -47.4)"/><path class="cls-1" d="M321.7,334.16l.35-.26a2.07,2.07,0,0,0,.72-2.74l-.18-.39c-.95-2-4-1.34-4.53.6S319.88,335.49,321.7,334.16Z" transform="translate(-9.83 -47.4)"/><path class="cls-1" d="M397.45,338.41c0-2.53-3.33-3.82-5.43-4.08-.59-.07-.63.72-.27,1,1.48,1.11,3,3.32,4.79,3.78A.73.73,0,0,0,397.45,338.41Z" transform="translate(-9.83 -47.4)"/><path class="cls-1" d="M264.11,377.69a7.44,7.44,0,0,0-5.68.53.39.39,0,0,0,0,.66,7.49,7.49,0,0,0,5.82-.09C264.76,378.57,264.56,377.83,264.11,377.69Z" transform="translate(-9.83 -47.4)"/><path class="cls-1" d="M351.17,350c.63-.21,1.05-1.15.44-1.64a4,4,0,0,0-4.21-.81,1,1,0,0,0-.41,1.58A3.91,3.91,0,0,0,351.17,350Z" transform="translate(-9.83 -47.4)"/><path class="cls-1" d="M401,378.67c.68.12,1.34-.71.73-1.26-2.17-2-5.36-2.92-8.08-3.89-.76-.26-1.16.85-.53,1.25C395.54,376.28,398.21,378.19,401,378.67Z" transform="translate(-9.83 -47.4)"/><path class="cls-1" d="M461.59,404.73A9.82,9.82,0,0,0,457,396.4a9.33,9.33,0,0,0-9.15-.58,76.66,76.66,0,0,0-11.28,7c-8.87,6.26-18.93,13.35-38.21,13.35s-29.34-7.09-38.21-13.35c-8.45-6-15.75-11.12-31.15-11.12s-22.7,5.15-31.16,11.12c-8.87,6.26-18.92,13.35-38.2,13.35s-29.33-7.09-38.2-13.35c-8.46-6-15.76-11.12-31.15-11.12s-22.69,5.15-31.14,11.12c-8.87,6.26-18.92,13.35-38.19,13.35s-29.33-7.09-38.2-13.35a77,77,0,0,0-11.27-7,9.3,9.3,0,0,0-9.15.57,9.82,9.82,0,0,0-4.61,8.33v13.84a54.24,54.24,0,0,1,17,4.14,80.65,80.65,0,0,1,15.06,9c8.45,6,15.75,11.12,31.15,11.12s22.69-5.15,31.13-11.12a79.37,79.37,0,0,1,15.07-9,57.31,57.31,0,0,1,23.13-4.39,57.34,57.34,0,0,1,23.13,4.39,79.37,79.37,0,0,1,15.07,9c8.45,6,15.75,11.12,31.15,11.12s22.7-5.15,31.15-11.12a79.37,79.37,0,0,1,15.07-9,63.18,63.18,0,0,1,46.28,0,79.68,79.68,0,0,1,15.07,9c8.45,6,15.75,11.12,31.15,11.12s22.7-5.15,31.16-11.12a80.43,80.43,0,0,1,15.07-9,54.17,54.17,0,0,1,17-4.14Z" transform="translate(-9.83 -47.4)"/><path class="cls-1" d="M295,309.31a1,1,0,0,0,0,2A1,1,0,0,0,295,309.31Z" transform="translate(-9.83 -47.4)"/><path class="cls-1" d="M245.25,328.48c-3.38,0-6.13.8-6.13,1.78s2.75,1.77,6.13,1.77,6.13-.79,6.13-1.77S248.64,328.48,245.25,328.48Z" transform="translate(-9.83 -47.4)"/><path class="cls-1" d="M148.15,345.75a.28.28,0,0,0-.11.08.3.3,0,0,0-.1.19c-.7,1.19.91,2.59,1.86,1.36s-.58-2.3-1.6-1.67v0Z" transform="translate(-9.83 -47.4)"/><path class="cls-1" d="M231.12,316.31c-2.53,0-2.54,3.94,0,3.94S233.66,316.31,231.12,316.31Z" transform="translate(-9.83 -47.4)"/><path class="cls-1" d="M184.39,317.4a1.18,1.18,0,0,0,0,2.35A1.18,1.18,0,0,0,184.39,317.4Z" transform="translate(-9.83 -47.4)"/><path class="cls-1" d="M180.82,350.42a1.9,1.9,0,0,0,0,3.79C183.25,354.21,183.25,350.42,180.82,350.42Z" transform="translate(-9.83 -47.4)"/><path class="cls-1" d="M400.49,174.47l0,0,0,0a6.57,6.57,0,0,0-1.93-.53,6.12,6.12,0,0,0-.74,0l-.29,0-.54.05-.31,0a5.12,5.12,0,0,0-.77.2,5.24,5.24,0,0,0-1.07.44,6.44,6.44,0,0,0-1.05.67,5.12,5.12,0,0,0-.49.44,6.1,6.1,0,0,0-1,1.2,6.68,6.68,0,0,0-.59,1.2,6.84,6.84,0,0,0-.36,1.5,6.46,6.46,0,0,0,.37,3,6.54,6.54,0,0,0,1,1.8,6.83,6.83,0,0,0,1.16,1.12c.12.09.24.18.37.26l0,0,.41.23a1.18,1.18,0,0,1,.19.11,7.12,7.12,0,0,0,.86.36h0a6.33,6.33,0,0,0,1.32.29,1.51,1.51,0,0,0,.3,0,6.47,6.47,0,0,0,3.15-12.33Z" transform="translate(-9.83 -47.4)"/><path class="cls-1" d="M336.42,304.88c4.14,1,8.2,2,12.21,3.17-.09-.3-.19-.6-.28-.91-6.09-21.21-.5-45.47,6.65-64.49C344,259.38,333.62,281.89,336.42,304.88Z" transform="translate(-9.83 -47.4)"/><path class="cls-1" d="M395.14,189.83a6.82,6.82,0,0,0-.92-.94,6.25,6.25,0,0,0-.61-.44l0,0-.38-.24-.22-.1-.21-.11-.14-.06a6.33,6.33,0,0,0-1.84-.49h-.14l-.58,0a6.24,6.24,0,0,0-1,.08l-.34.06a6.56,6.56,0,0,0-4.49,3.46,6.75,6.75,0,0,0-.64,2.17,6.68,6.68,0,0,0,.09,2,6.27,6.27,0,0,0,.68,1.84c.1.18.21.35.32.52l.29.4a4.4,4.4,0,0,0,.35.39,6.32,6.32,0,0,0,2,1.46,6.61,6.61,0,0,0,2,.55A6.48,6.48,0,0,0,395.29,190Z" transform="translate(-9.83 -47.4)"/><path class="cls-1" d="M381.4,186.42h.19a6.33,6.33,0,0,0,2-.14,6.61,6.61,0,0,0,2.43-1.14l.15-.11a6.42,6.42,0,0,0,2.39-4.33h0a6.88,6.88,0,0,0,0-1.11,6.41,6.41,0,0,0-.94-3l-.31-.45-.15-.21a6.66,6.66,0,0,0-2-1.68l-.24-.12a6.38,6.38,0,0,0-2.08-.59,5.79,5.79,0,0,0-.72,0,6.49,6.49,0,0,0-2,12.64A7,7,0,0,0,381.4,186.42Z" transform="translate(-9.83 -47.4)"/><path class="cls-1" d="M140.2,138.56,111.12,68.13l-.84.69-.86.74,28.84,69.84.33-.14Z" transform="translate(-9.83 -47.4)"/><path class="cls-1" d="M206.27,334.57a1.21,1.21,0,0,0,0-2.42A1.21,1.21,0,0,0,206.27,334.57Z" transform="translate(-9.83 -47.4)"/><path class="cls-1" d="M127.05,334.85c-1.45-.63-2.83.13-4.18.82a7.81,7.81,0,0,0-3.69,3.53c-.09.13.07.26.2.2,1.42-.66,2.93-1.37,4.37-2,1.21-.5,2.56-.52,3.44-1.52A.69.69,0,0,0,127.05,334.85Z" transform="translate(-9.83 -47.4)"/><path class="cls-1" d="M127.47,376.2c-2.44-.76-6.06-.06-7.79,1.91a.34.34,0,0,0,.24.58,17.3,17.3,0,0,0,3.49-.51,29.29,29.29,0,0,0,4.06-.74A.65.65,0,0,0,127.47,376.2Z" transform="translate(-9.83 -47.4)"/><path class="cls-1" d="M91.75,368.32C89,369.7,87,372.9,85.2,375.38c-.17.23.17.59.41.41C88,374,91.18,371.86,92.47,369A.53.53,0,0,0,91.75,368.32Z" transform="translate(-9.83 -47.4)"/><polygon class="cls-1" points="140.3 115.21 140.3 115.2 139.24 115.65 140.3 115.21"/><path class="cls-1" d="M209.2,352.88a1.23,1.23,0,0,0,2.07.86l.3-.29a.82.82,0,0,0,0-1.13l-.3-.29A1.22,1.22,0,0,0,209.2,352.88Z" transform="translate(-9.83 -47.4)"/><path class="cls-2" d="M493.36,184a75.26,75.26,0,0,0-24.09-27.26A71.61,71.61,0,0,0,436.6,145c-11.12-.93-21.84.48-31,4.18l-1.14.48a44.47,44.47,0,0,0-3-12.79l-2-4.57a43.46,43.46,0,0,0-2.51-4.12c-.9-1.31-1.68-2.66-2.66-3.82l-3-3.31a51.63,51.63,0,0,0-23.69-13.83,50.36,50.36,0,0,0-7.53-1.41,24,24,0,0,0-2.65-.13c11.43,6.89,20.79,16.1,26.73,25.57a55.14,55.14,0,0,1,6.88,18.14,59.26,59.26,0,0,0-8.6-8.81c-18.81-15.44-44.63-17.76-63.06-11.18a69,69,0,0,0-23,13,90,90,0,0,0-7.88,7.53c-2.14,2.62-4.17,4.9-5.76,7.18l-4.07,6.15c-1.09,1.86-1.9,3.51-2.6,4.81L274,172.08a124.78,124.78,0,0,1,26.1-20.68,78.58,78.58,0,0,1,28.73-9.74,68.46,68.46,0,0,1,27.57,2.43c1.82.59,3.59,1.25,5.32,1.95a48.61,48.61,0,0,0-20.25.24,44.56,44.56,0,0,0-23.88,13.89,52.73,52.73,0,0,0-11,20.1,71.54,71.54,0,0,0-2.42,17c0,2.37,0,4.48.06,6.31s.35,3.39.48,4.66c.31,2.51.47,3.86.47,3.86,1.9-9.68,4.51-19,8.49-27.22a48.21,48.21,0,0,1,16-19.45c13.12-9,30.16-8.46,42-3.08a36.28,36.28,0,0,1,6.9,3.86,18.71,18.71,0,0,0-5.92,2.51,24.23,24.23,0,0,0-4.84,3.7,23,23,0,0,0-3.16,3.33c-1.61,1.95-2.45,3.11-2.45,3.11,5.15-2.07,9.59-4.88,14-6.37.45-.17.89-.29,1.33-.41a9.1,9.1,0,0,0,.92,16.21,32.12,32.12,0,0,0,3.45,10.05l.36.61-10.57,9.82c-.6.56-48,45.34-44.19,94.11a337,337,0,0,0-67.87-6.77,343.56,343.56,0,0,0-45.14,2.95l-61.2-141.25c4.09-4,12.18-9,22-13.16,14.18-6,27-8.32,30.15-5.59l.62-.26S192.24,89.26,116,64.27c-1.75-.57-3.53-1.12-5.34-1.67a8.07,8.07,0,0,0,2-1.86c2.48-.36,5.77-.77,9.68-1.11h0c31-2.76,101.5-1.63,127.87,60.47l.36-.15c.51-3.5,6-8.3,13.69-11.56,7.13-3,13.92-3.8,17.19-2.22l-.24-.57c-.25-.58-.52-1.14-.79-1.69-.42-.89-.87-1.8-1.32-2.68-.28-.6-.59-1.16-.91-1.75-1.22-2.28-2.57-4.47-4-6.6-.38-.58-.77-1.16-1.19-1.74s-.95-1.33-1.43-1.95c-.77-1.07-1.59-2.11-2.42-3.15a1.18,1.18,0,0,1-.27-.31c-1-1.25-2.11-2.47-3.22-3.68L264,80.27,262.69,79c-1.91-1.86-3.88-3.67-6-5.35-.61-.54-1.26-1.07-1.92-1.56s-1.31-1-2-1.52c-1.34-1-2.69-2-4.07-2.89-.7-.48-1.41-.93-2.13-1.37-2.84-1.81-5.79-3.47-8.84-5-1.2-.61-2.45-1.23-3.67-1.8l-1.3-.58c-.78-.36-1.57-.72-2.38-1l-2.41-1c-.81-.33-1.64-.64-2.44-1L223.11,55c-.83-.29-1.68-.57-2.5-.84a140.82,140.82,0,0,0-37.77-6.59c-.94-.06-1.87-.09-2.82-.12h-.46c-.88,0-1.77,0-2.68,0-4.08,0-8.19.12-12.35.41l-2.34.19c-2,.16-4,.36-5.95.61-1.68.18-3.37.41-5.05.67a181.37,181.37,0,0,0-19.09,3.94q-6.54,1.7-13.09,4-2.91,1-5.8,2.09a1.52,1.52,0,0,0-.11-.6c-.63-1.48-3.82-1.54-7.13-.14s-5.48,3.75-4.85,5.23a1.47,1.47,0,0,0,.31.44C31.35,96.27-6.52,164.78,16.63,219.3l.48-.2c.51-3.51,6.05-8.32,13.68-11.56s15-3.9,17.85-1.84l1.13-.48-.65.28C19,134.66,85.84,77.63,102.58,64.78a6.6,6.6,0,0,0,2.25.06q-4.24,8.25-7.51,16c-26.12,62.49-6.38,101.7-4.27,105.59.86-4.24,11.19-11.57,24.89-17.39,9.4-4,18.21-6.34,24-6.68L202,301c-67.56,11.61-121.32,43.11-142.64,83.26a21.44,21.44,0,0,0-3.57,1.82,22,22,0,0,0-10.32,18.67v25.82h6.12c15.4,0,22.7,5.15,31.15,11.12,8.87,6.26,18.92,13.35,38.2,13.35s29.32-7.09,38.19-13.35c8.45-6,15.74-11.12,31.14-11.12s22.69,5.15,31.15,11.12c8.87,6.26,18.92,13.35,38.2,13.35s29.33-7.09,38.2-13.35c8.46-6,15.76-11.12,31.16-11.12s22.7,5.15,31.15,11.12C369,447.93,379.06,455,398.34,455s29.34-7.09,38.21-13.35c8.45-6,15.76-11.12,31.16-11.12h6.11V404.73a22,22,0,0,0-10.31-18.67,22.72,22.72,0,0,0-3.57-1.83c-16.72-31.46-53.35-57.61-100.94-73a47.92,47.92,0,0,1-2.36-6.41c-10.92-38,21.32-90,21.65-90.53L386,202a9.07,9.07,0,0,0,3.09.92,8.72,8.72,0,0,0,1,.06A9.1,9.1,0,0,0,398,189.43a9.08,9.08,0,0,0,7.68-13.53c.52.21,1,.44,1.5.68,4.22,2.13,6.5,6,7.86,9.81.31,1,.6,1.92.89,2.82s.32,1.87.47,2.72.32,1.68.47,2.43.11,1.49.16,2.13c.22,2.58.44,4.11.44,4.11,2.49-5.13,3.86-11.33,2.24-17.41a17.53,17.53,0,0,0-4.7-8l-1.72-1.5c-.63-.41-1.29-.76-1.93-1.11a13.37,13.37,0,0,0-3.42-1.33,47,47,0,0,1,10.47.21c16.05,2,29.57,11.37,35.42,23.64a56.43,56.43,0,0,1,5.35,18.64,99.47,99.47,0,0,1,.06,16.27c-.21,2.33-.4,4.43-.57,6.25s-.52,3.39-.72,4.66c-.36,2.58-.55,4-.55,4a82.07,82.07,0,0,0,9.89-29.2,51.58,51.58,0,0,0-5.41-31.15,47.84,47.84,0,0,0-22.31-20.71,54.54,54.54,0,0,0-10.42-3.54,71.73,71.73,0,0,1,37.72,11.86c13.79,9.05,22.74,21.67,28.15,31,1.32,2.4,2.5,4.55,3.54,6.42s1.73,3.61,2.37,5l2.06,4.22A93.25,93.25,0,0,0,493.36,184ZM429.5,431.67c-8.46,6-15.76,11.12-31.16,11.12s-22.7-5.15-31.15-11.12a79.68,79.68,0,0,0-15.07-9,63.18,63.18,0,0,0-46.28,0,79.37,79.37,0,0,0-15.07,9c-8.45,6-15.75,11.12-31.15,11.12s-22.7-5.15-31.15-11.12a79.37,79.37,0,0,0-15.07-9,57.34,57.34,0,0,0-23.13-4.39,57.31,57.31,0,0,0-23.13,4.39,79.37,79.37,0,0,0-15.07,9c-8.44,6-15.74,11.12-31.13,11.12s-22.7-5.15-31.15-11.12a80.65,80.65,0,0,0-15.06-9,54.24,54.24,0,0,0-17-4.14V404.73a9.82,9.82,0,0,1,4.61-8.33,9.3,9.3,0,0,1,9.15-.57,77,77,0,0,1,11.27,7c8.87,6.26,18.92,13.35,38.2,13.35s29.32-7.09,38.19-13.35c8.45-6,15.74-11.12,31.14-11.12s22.69,5.15,31.15,11.12c8.87,6.26,18.92,13.35,38.2,13.35s29.33-7.09,38.2-13.35c8.46-6,15.76-11.12,31.16-11.12s22.7,5.15,31.15,11.12c8.87,6.26,18.93,13.35,38.21,13.35s29.34-7.09,38.21-13.35a76.66,76.66,0,0,1,11.28-7,9.33,9.33,0,0,1,9.15.58,9.82,9.82,0,0,1,4.61,8.33v13.84a54.17,54.17,0,0,0-17,4.14A80.43,80.43,0,0,0,429.5,431.67ZM149.8,347.38c-1,1.23-2.56-.17-1.86-1.36a.3.3,0,0,1,.1-.19.28.28,0,0,1,.11-.08l0-.07v0C149.22,345.08,150.66,346.26,149.8,347.38Zm31,3c2.43,0,2.43,3.79,0,3.79A1.9,1.9,0,0,1,180.82,350.42Zm3.57-33a1.18,1.18,0,0,1,0,2.35A1.18,1.18,0,0,1,184.39,317.4Zm46.73-1.09c2.54,0,2.53,3.94,0,3.94S228.59,316.31,231.12,316.31Zm63.89-7a1,1,0,0,1,0,2A1,1,0,0,1,295,309.31Zm8,47.43.32-.27a1.63,1.63,0,0,1,2.3,2.3l-.26.32C304,360.74,301.35,358.11,303,356.74Zm15.06-25.37c.53-1.94,3.58-2.59,4.53-.6l.18.39a2.07,2.07,0,0,1-.72,2.74l-.35.26C319.88,335.49,317.53,333.3,318.06,331.37Zm74,3c2.1.26,5.42,1.55,5.43,4.08a.73.73,0,0,1-.91.69c-1.79-.46-3.31-2.67-4.79-3.78C391.39,335.05,391.43,334.26,392,334.33Zm29.66,22a8.7,8.7,0,0,1,2.58,2.69c.23.5-.15,1.2-.77,1a9.13,9.13,0,0,1-3.15-2.36C419.44,356.87,420.77,355.57,421.68,356.36Zm-74.28-8.81a4,4,0,0,1,4.21.81c.61.49.19,1.43-.44,1.64a3.91,3.91,0,0,1-4.18-.87A1,1,0,0,1,347.4,347.55Zm46.29,26c2.72,1,5.91,1.91,8.08,3.89.61.55,0,1.38-.73,1.26-2.83-.48-5.5-2.39-7.88-3.9C392.53,374.37,392.93,373.26,393.69,373.52Zm-129.44,5.27a7.49,7.49,0,0,1-5.82.09.39.39,0,0,1,0-.66,7.44,7.44,0,0,1,5.68-.53C264.56,377.83,264.76,378.57,264.25,378.79Zm-19-46.76c-3.38,0-6.13-.79-6.13-1.77s2.75-1.78,6.13-1.78,6.13.8,6.13,1.78S248.64,332,245.25,332Zm-33.68,21.42-.3.29a1.21,1.21,0,1,1,0-1.71l.3.29A.82.82,0,0,1,211.57,353.45Zm-5.3-21.3a1.21,1.21,0,0,1,0,2.42A1.21,1.21,0,0,1,206.27,332.15Zm-78.8,45.29a29.29,29.29,0,0,1-4.06.74,17.3,17.3,0,0,1-3.49.51.34.34,0,0,1-.24-.58c1.73-2,5.35-2.67,7.79-1.91A.65.65,0,0,1,127.47,377.44Zm-.28-41.52c-.88,1-2.23,1-3.44,1.52-1.44.59-3,1.3-4.37,2-.13.06-.29-.07-.2-.2a7.81,7.81,0,0,1,3.69-3.53c1.35-.69,2.73-1.45,4.18-.82A.69.69,0,0,1,127.19,335.92ZM92.47,369c-1.29,2.82-4.44,4.92-6.86,6.75-.24.18-.58-.18-.41-.41,1.76-2.48,3.76-5.68,6.55-7.06A.53.53,0,0,1,92.47,369ZM138.26,139.4,109.42,69.56l-2.18-5.28c.33-.12.67-.24,1-.38s.63-.29.93-.45l1.94,4.68,29.08,70.43,9.93,24h0l-1.06.44-.15.06-.74.31ZM348.35,307.14c.09.31.19.61.28.91-4-1.13-8.07-2.19-12.21-3.17-2.8-23,7.56-45.5,18.58-62.23C347.85,261.67,342.26,285.93,348.35,307.14ZM404.2,181.06a6.48,6.48,0,0,1-6.86,5.74,1.51,1.51,0,0,1-.3,0,6.33,6.33,0,0,1-1.32-.29h0a7.12,7.12,0,0,1-.86-.36,1.18,1.18,0,0,0-.19-.11l-.41-.23,0,0c-.13-.08-.25-.17-.37-.26a6.83,6.83,0,0,1-1.16-1.12,6.54,6.54,0,0,1-1-1.8,6.46,6.46,0,0,1-.37-3,6.84,6.84,0,0,1,.36-1.5,6.68,6.68,0,0,1,.59-1.2,6.1,6.1,0,0,1,1-1.2,5.12,5.12,0,0,1,.49-.44,6.44,6.44,0,0,1,1.05-.67,5.24,5.24,0,0,1,1.07-.44,5.12,5.12,0,0,1,.77-.2l.31,0,.54-.05.29,0a6.12,6.12,0,0,1,.74,0,6.57,6.57,0,0,1,1.93.53l0,0,0,0A6.51,6.51,0,0,1,404.2,181.06Zm-7.68,13.53a6.49,6.49,0,0,1-7.16,5.73,6.61,6.61,0,0,1-2-.55,6.32,6.32,0,0,1-2-1.46,4.4,4.4,0,0,1-.35-.39l-.29-.4c-.11-.17-.22-.34-.32-.52a6.27,6.27,0,0,1-.68-1.84,6.68,6.68,0,0,1-.09-2,6.75,6.75,0,0,1,.64-2.17,6.56,6.56,0,0,1,4.49-3.46l.34-.06a6.24,6.24,0,0,1,1-.08l.58,0h.14a6.33,6.33,0,0,1,1.84.49l.14.06.21.11.22.1.38.24,0,0a6.25,6.25,0,0,1,.61.44,6.82,6.82,0,0,1,.92.94l.15.2A6.47,6.47,0,0,1,396.52,194.59ZM378.07,185a6.48,6.48,0,0,1,4-11.53,5.79,5.79,0,0,1,.72,0,6.38,6.38,0,0,1,2.08.59l.24.12a6.66,6.66,0,0,1,2,1.68l.15.21.31.45a6.41,6.41,0,0,1,.94,3,6.88,6.88,0,0,1,0,1.11h0a6.42,6.42,0,0,1-2.39,4.33l-.15.11a6.61,6.61,0,0,1-2.43,1.14,6.33,6.33,0,0,1-2,.14h-.19a7,7,0,0,1-1.3-.28A6.46,6.46,0,0,1,378.07,185Z" transform="translate(-9.83 -47.4)"/><path class="cls-3" d="M97.32,80.85q3.27-7.77,7.51-16a6.6,6.6,0,0,1-2.25-.06C85.84,77.63,19,134.66,49.12,205.5l.65-.28c.94-3.23,6.87-7.94,15.11-12,1.39-.7,2.83-1.36,4.34-2,10.46-4.45,20.12-6.09,23.62-4.29l.38-.16s0-.11-.16-.31v0C90.94,182.55,71.2,143.34,97.32,80.85Z" transform="translate(-9.83 -47.4)"/><path class="cls-3" d="M122.33,59.62h0c-3.91.34-7.2.75-9.68,1.11a8.07,8.07,0,0,1-2,1.86c1.81.55,3.59,1.1,5.34,1.67,76.28,25,90.14,74.56,90.14,74.56l.27-.12c1.13-3.77,9-9.57,19.45-14s20.11-6.09,23.61-4.29l.77-.33C223.83,58,153.36,56.86,122.33,59.62Z" transform="translate(-9.83 -47.4)"/><path class="cls-3" d="M111.12,68.13l-1.94-4.68q-.45.24-.93.45c-.34.14-.68.26-1,.38l2.18,5.28.86-.74Z" transform="translate(-9.83 -47.4)"/><polygon class="cls-3" points="139.09 115.71 139.24 115.65 140.3 115.2 130.37 91.17 128.75 91.86 128.43 92 138.35 116.02 139.09 115.71"/></svg>