<svg id="Calque_1" data-name="Calque 1" xmlns="http://www.w3.org/2000/svg" viewBox="0 0 464.68 408.91"><defs><style>.cls-1{fill:#007338;}</style></defs><title>Information</title><path class="cls-1" d="M488,456.57,325.34,333.35H73.78a50.52,50.52,0,0,1-50.46-50.47V98.12A50.52,50.52,0,0,1,73.78,47.66H397.47a50.52,50.52,0,0,1,50.46,50.46V321.93ZM73.78,67.6A30.55,30.55,0,0,0,43.26,98.12V282.88a30.56,30.56,0,0,0,30.52,30.53H332l119.49,90.52L428,324.83V98.12A30.55,30.55,0,0,0,397.47,67.6Z" transform="translate(-23.32 -47.66)"/><path class="cls-1" d="M396.71,113.75H73.41a5,5,0,0,1,0-10h323.3a5,5,0,0,1,0,10Z" transform="translate(-23.32 -47.66)"/><path class="cls-1" d="M396.71,149.51H280.27a5,5,0,1,1,0-10H396.71a5,5,0,0,1,0,10Z" transform="translate(-23.32 -47.66)"/><path class="cls-1" d="M396.71,184.16H178.9a5,5,0,1,1,0-10H396.71a5,5,0,0,1,0,10Z" transform="translate(-23.32 -47.66)"/><path class="cls-1" d="M396.71,223.28H128.41a5,5,0,0,1,0-10h268.3a5,5,0,0,1,0,10Z" transform="translate(-23.32 -47.66)"/></svg>