<svg id="Calque_1" data-name="Calque 1" xmlns="http://www.w3.org/2000/svg" viewBox="0 0 459.95 459.79"><defs><style>.cls-1{fill:#007338;}</style></defs><title>location</title><polygon class="cls-1" points="245.09 0 211.17 0 211.17 34.45 213.43 34.45 213.43 34.46 243.96 34.46 243.96 34.45 245.09 34.45 245.09 0"/><polygon class="cls-1" points="240.57 93.7 240.57 99.88 215.69 99.75 215.69 93.7 211.17 93.7 211.17 139.61 215.69 139.61 215.69 131.16 240.57 131.16 240.57 139.61 245.09 139.61 245.09 93.7 240.57 93.7"/><polygon class="cls-1" points="242.83 238.63 242.83 238.63 213.43 238.63 213.43 238.63 211.17 238.63 211.17 422.16 245.09 422.16 245.09 238.63 242.83 238.63"/><path class="cls-1" d="M356,134.91a15,15,0,0,1-3.6-.43H159a18.21,18.21,0,0,1-18.19-18.19V72.13A18.2,18.2,0,0,1,159,54H352.37a15,15,0,0,1,9.29.68l67.4,27.68a12.86,12.86,0,0,1,0,23.8l-67.4,27.68A14.94,14.94,0,0,1,356,134.91ZM162.15,113.18H355.79l46.19-19-46.19-19H162.15ZM421,102h0Z" transform="translate(-27.05 -30.13)"/><path class="cls-1" d="M162.42,278.9a13.88,13.88,0,0,1-6.56-1.65L70,231a13.32,13.32,0,0,1,0-23.45l85.87-46.28a13.91,13.91,0,0,1,11-.93H415.38a17,17,0,0,1,17,17v84a17,17,0,0,1-17,17H166.82A14.07,14.07,0,0,1,162.42,278.9Zm-.06-19.56H413.49V179.15H162.36L88,219.25Z" transform="translate(-27.05 -30.13)"/><path class="cls-1" d="M27.05,489.43c17.58-8.89,36.2-15.46,54.86-21.84,9.44-2.82,18.92-5.58,28.47-8.07,9.6-2.21,19.14-4.85,28.83-6.73,38.68-8.13,78.28-11.76,117.84-12.08h14.84l14.82.9c9.87.72,19.77.95,29.6,2.08,19.6,2.66,39.37,4.22,58.57,9.19L389.36,456a133.76,133.76,0,0,1,14.35,3.59l28.37,8.43c9.49,2.66,18.55,6.63,27.69,10.29S478,485.74,487,489.6l0,.11c-38.59-8.84-76.32-17.76-114.74-22.47a763.2,763.2,0,0,0-115.12-7.7c-38.46-.4-76.93,2.71-115.24,7.77-19.15,2.65-38.29,5.73-57.39,9.45-19.22,3.38-38.11,8.15-57.2,13.17Z" transform="translate(-27.05 -30.13)"/></svg>