<svg id="Calque_1" data-name="Calque 1" xmlns="http://www.w3.org/2000/svg" viewBox="0 0 488.15 443.35"><defs><style>.cls-1{fill:none;}.cls-2{fill:#007338;}</style></defs><title>plage</title><path class="cls-1" d="M319.14,146.72l.66-.39.14,0a5.44,5.44,0,0,1,.88.19c.69.2,1.23.47,1.66.58l.89.31a15.55,15.55,0,0,0-2.35-1.07,21.36,21.36,0,0,0-2.54-.78c-.36-.08-.74-.15-1.11-.21a6.07,6.07,0,0,0-3.66-2.91,8.74,8.74,0,0,0,2.54,2.72,33.86,33.86,0,0,0-6.74-.19,7.61,7.61,0,0,0-4.58-1.58,10.47,10.47,0,0,0,2.92,1.71,58,58,0,0,0-7.68,1.29,9.24,9.24,0,0,0-5.05.07,11.54,11.54,0,0,0,2.48.58c-.69.18-1.37.37-2,.56a85.68,85.68,0,0,0-13,5,153.69,153.69,0,0,1,15.77-4.73,6.12,6.12,0,0,0-2.08,2.89,25.59,25.59,0,0,0,3.19-2.51l.89-.84a72.06,72.06,0,0,1,10-1.54,6.16,6.16,0,0,0-3.07,2.17,7.38,7.38,0,0,0-1,1.71,11.75,11.75,0,0,0,4.3-3.9,41.1,41.1,0,0,1,6.93.08l.13.06a.43.43,0,0,1,0-.05l1.19.17.13,0h-.11a4.79,4.79,0,0,0-3.81,3.39c1.27-.94,2.42-1.76,3.37-2.36Z" transform="translate(-13.85 -26.27)"/><path class="cls-1" d="M316.23,100.09c.33.39.62.77.94,1.16-.67-.26-1.34-.53-2-.76l-5.37-1.91-5.55-1.87a42.83,42.83,0,0,0,13.66,5.43c2,2.6,3.76,5.2,5.41,7.63a95.23,95.23,0,0,1,5.39,8.66c.43.69.83,1.36,1.21,2a71.06,71.06,0,0,0-12-9.94,110.79,110.79,0,0,0,12.77,11.2c2.15,3.82,3.66,7.06,4.83,9.39l2.27,4.56c-.45-1.21-.92-2.42-1.4-3.63a28.81,28.81,0,0,0,2.87-10.82,31.47,31.47,0,0,0-.05-5.71c-1,7.27-2.47,14.46-2.88,16.37-2-5.15-4.32-10.27-6.88-15.3a31.37,31.37,0,0,0,.39-12,32.48,32.48,0,0,0-1.71-6.6,89.51,89.51,0,0,1,1.11,14c0,1.57-.07,2.93-.12,4a141.23,141.23,0,0,0-8-13.66h0c-.38-.57-.75-1.16-1.14-1.73-.5-.73-1-1.46-1.54-2.18a77.55,77.55,0,0,0-1.59-17.52,123.06,123.06,0,0,0,1.11,16.86A110.86,110.86,0,0,0,301,79.32a90.55,90.55,0,0,0-7.31-16.12A136,136,0,0,0,300,78.4a97.55,97.55,0,0,0-8.17-6.16,95.21,95.21,0,0,0-13.67-7.71A80.46,80.46,0,0,0,270.22,54a113.59,113.59,0,0,0,6.22,9.76,99.27,99.27,0,0,0-19.17-6.18,48.35,48.35,0,0,0-8.8-6.13,46.58,46.58,0,0,0-7-3.15c5,2.89,9.87,6,13.43,8.49l.6.42a112.1,112.1,0,0,0-28.82-1.81,132.72,132.72,0,0,0-18.09-3.92c5.38,1.74,10.87,3.13,15.24,4.13q-1.47.12-2.91.27a156.82,156.82,0,0,0-30.6,6.47,126.91,126.91,0,0,0-16.73,1.8c4.52,0,9-.25,12.93-.55-6.65,2.27-12.46,4.7-17.3,6.9h0a32.29,32.29,0,0,0-14.82,3.68c4.33-1.11,8.65-2.06,11.95-2.64l1-.18a135.8,135.8,0,0,0-16.47,9c5.09-2.61,10.3-5,15.58-7.2a17.68,17.68,0,0,0-2.16,1.78,17.16,17.16,0,0,0-2,2.28A27.71,27.71,0,0,0,169,72.13a195.86,195.86,0,0,1,23.56-7.73,48,48,0,0,0-6,3.4,47.08,47.08,0,0,0-5.62,4.33c5.91-3.59,12-6.85,15.6-8.71a163.9,163.9,0,0,1,27.26-4.08c-3.07.76-6,1.63-8.49,2.52a91.62,91.62,0,0,0-9.58,3.94c7.43-2.41,14.93-4.62,20.62-6.12l2.2-.55,1,0a116.14,116.14,0,0,1,24.82,2.16c-5,.67-10,1.33-14.12,1.77l-10.3,1a98.8,98.8,0,0,0,21.56-1.47c1.76-.32,3.33-.64,4.68-.94a106.2,106.2,0,0,1,10.32,2.74,96.65,96.65,0,0,1,14,5.83,125.43,125.43,0,0,0-22.43,1.13,203,203,0,0,0,23.07-.8A98.31,98.31,0,0,1,296,80c2,1.56,3.9,3.15,5.73,4.75a61.06,61.06,0,0,0-8.69-1.2,59.62,59.62,0,0,0-7.21-.06l17,2.28A104.19,104.19,0,0,1,316.23,100.09Z" transform="translate(-13.85 -26.27)"/><path class="cls-1" d="M385.66,166.07c1.89,2.79,4.15,5.48,5.89,7.65l3,3.7a28,28,0,0,0-5.5-8.3A25.74,25.74,0,0,0,385.66,166.07Z" transform="translate(-13.85 -26.27)"/><path class="cls-1" d="M349.4,163.66l-.41-.19a36.69,36.69,0,0,0-4.81-1.83c1.74.72,3.45,1.53,5.11,2.41.57.3,1.14.61,1.7.93l.19.1a51.38,51.38,0,0,1,7.58,5.33,15.45,15.45,0,0,0,1.64,4c.67,1.19,1.26,2.05,1.26,2.05a9.33,9.33,0,0,0-1.55-4.75l-.17-.26c.4.37.81.74,1.2,1.13a37.44,37.44,0,0,1,3.12,3.47,21.54,21.54,0,0,0,1,4.22,28.87,28.87,0,0,0,1.08,2.82,17.24,17.24,0,0,0-.68-5.2,32,32,0,0,1,3.15,5.8,43.06,43.06,0,0,0,0,6.37,8.24,8.24,0,0,0,.88-3.67c.11.38.23.76.31,1.14a14.44,14.44,0,0,1,.64,3.64c0,.15,0,.29.05.44a11.84,11.84,0,0,0-1.11,3.94,17.83,17.83,0,0,0-.13,2.37,10.39,10.39,0,0,0,1.46-4.13c0,.24,0,.48,0,.72a42.48,42.48,0,0,1-.44,5.39,18.59,18.59,0,0,0-2.2,4c-.55,1.29-.9,2.3-.9,2.3a8.93,8.93,0,0,0,2.51-3.35c-.25,1.19-.38,1.85-.38,1.85.23-.63.43-1.27.63-1.92a9.94,9.94,0,0,0,.72,4.16,14.69,14.69,0,0,0-.11-6.5,32.23,32.23,0,0,0,.81-8.15,16.64,16.64,0,0,0,2,4.7,24.31,24.31,0,0,0-2.3-8.16.22.22,0,0,1,0,.08,25.05,25.05,0,0,0-.79-3.51,25.64,25.64,0,0,0-.88-2.51,21.5,21.5,0,0,0,2.24,2.83,25.91,25.91,0,0,0,2,1.93,13.69,13.69,0,0,0-3.16-4.8,14.3,14.3,0,0,0-1.76-1.51,29.87,29.87,0,0,0-2.87-4.77,28.7,28.7,0,0,0,2.82,1.63c1.42.72,2.52,1.2,2.52,1.2a11.83,11.83,0,0,0-4.66-3.47,12.36,12.36,0,0,0-1.61-.55c-.28-.35-.57-.67-.85-1l0-.06v0a34.15,34.15,0,0,0-3.91-3.82c-.37-.32-.75-.62-1.12-.91a50.76,50.76,0,0,0,5.74,1.59l3.45.75a17.13,17.13,0,0,0-6.91-2.57,18.16,18.16,0,0,0-2.82-.2,47,47,0,0,0-6.18-4l-1.11-.58C350.63,164.24,350,163.94,349.4,163.66Z" transform="translate(-13.85 -26.27)"/><path class="cls-1" d="M355.85,83.17a13.53,13.53,0,0,0-2.18-1,12.94,12.94,0,0,0-3.58-.78c2.31,1.12,4.5,2.26,6.21,3.24a63.2,63.2,0,0,1,2.85,15c.05.73.08,1.45.09,2.17a26.18,26.18,0,0,0-4.05-7.56,26.88,26.88,0,0,0-3.36-3.71l7.43,12.12a54.43,54.43,0,0,1-1.89,14.83,15.28,15.28,0,0,0-1.53-7.93,14.58,14.58,0,0,0-2.67-3.9,40.84,40.84,0,0,1,3.25,9c.39,1.78.58,3.16.66,3.86a51.32,51.32,0,0,1-1.91,5.4,57.74,57.74,0,0,1-3.07,6.35l-.35.64-.85,1.57c.48-.56.94-1.13,1.4-1.71a50.24,50.24,0,0,0,6.86-11.67A37.19,37.19,0,0,0,366,107.6c-2,3-4,5.9-5.66,8.35.07-.21.15-.4.21-.61A46.09,46.09,0,0,0,362.66,105a55,55,0,0,0,4.19-9.53,71.33,71.33,0,0,0-4,7,52.79,52.79,0,0,0-.18-7.12c-.15-1.66-.38-3.29-.66-4.89.35-1,.66-2,.91-2.87a45.35,45.35,0,0,0,1-4.58,53.61,53.61,0,0,0-2.35,5.47,64.74,64.74,0,0,0-2.34-8.28A35.73,35.73,0,0,0,360.38,72a47.52,47.52,0,0,0-1.79,6.45c-.84-2.21-1.78-4.35-2.79-6.41,1.84-4.48,1.05-10,1.05-10a36.48,36.48,0,0,0-1.21,9.65,92.19,92.19,0,0,0-6.21-10.62l-.57-.82a22.66,22.66,0,0,0,.72-7.22,30.69,30.69,0,0,0-1.47,6.15,110.78,110.78,0,0,0-9.75-11.84,22.36,22.36,0,0,0,.14-3.76c-.08-1.62-.27-2.81-.27-2.81a14.41,14.41,0,0,0-.71,5.69c-2.06-2.15-4-4-5.73-5.57l-.88-.8a28.68,28.68,0,0,0-4.23-8,39.4,39.4,0,0,0,2.67,6.59c-3.45-3-5.57-4.41-5.57-4.41,2.58,2.61,5.07,5.32,7.46,8.08a18,18,0,0,0-2.54-1.47,23.93,23.93,0,0,0-2.34-1,11.31,11.31,0,0,0,4.24,3.12,11.67,11.67,0,0,0,1.7.59c3.15,3.73,6.12,7.57,8.86,11.47a32.23,32.23,0,0,0-7.54-4.6,47.94,47.94,0,0,0,8.7,6.28q2.46,3.61,4.63,7.26a30.85,30.85,0,0,0-7.85-3.36,44.74,44.74,0,0,0,8.6,4.62c.24.41.49.82.72,1.22q1.74,3.09,3.22,6.2a35.14,35.14,0,0,0-5.53-1.91,46.21,46.21,0,0,0,6.2,3.36A89.1,89.1,0,0,1,355.85,83.17Z" transform="translate(-13.85 -26.27)"/><path class="cls-1" d="M165.5,398.43a211,211,0,0,1,24.32,9.37,98.22,98.22,0,0,1-8-44.61c1.73-36,21.2-70.72,42.09-98C188.24,295.18,152.92,340.77,165.5,398.43Z" transform="translate(-13.85 -26.27)"/><path class="cls-1" d="M375.76,163.54c.52,3.32,3.82,5.37,3.82,5.37A14.71,14.71,0,0,0,375.76,163.54Z" transform="translate(-13.85 -26.27)"/><path class="cls-1" d="M385.27,160.47c7.58,2.06,16.86,1.24,16.86,1.24A96.05,96.05,0,0,0,385.27,160.47Z" transform="translate(-13.85 -26.27)"/><path class="cls-1" d="M349.69,154h0l-1.08-.21C348.63,154,349,154,349.69,154Z" transform="translate(-13.85 -26.27)"/><path class="cls-1" d="M497.39,260.38a183.29,183.29,0,0,0-3.61-22.06,68.74,68.74,0,0,0,7.08,9.07,33.36,33.36,0,0,0-5.21-7.92c-.84-1-1.59-1.76-2.16-2.33-.29-1.22-.58-2.43-.89-3.64a140.1,140.1,0,0,0-7.09-20.19,56.92,56.92,0,0,0,8,8.67c-2.42-4.58-7-8.29-8.29-9.28-1.73-3.89-3.63-7.7-5.72-11.38,1.18.91,2.3,1.74,3.3,2.49l4.4,3.23A18.81,18.81,0,0,0,479,198.6c-.51-.28-1-.52-1.47-.74l-.11-.19c-2-3.31-4.24-6.5-6.56-9.56a46.83,46.83,0,0,0,8.54,3.39c-3.16-3.53-7.68-5.42-10.88-6.39a109.05,109.05,0,0,0-15.74-15.89c-.46-.38-.94-.74-1.41-1.11,2.29,1,4.4,2.07,6.33,2.74a48.51,48.51,0,0,0,5.26,1.68,24.58,24.58,0,0,0-10.29-5.82,14.32,14.32,0,0,0-3.8-.55,117.52,117.52,0,0,0-14.1-9c2.66,0,5.17-.23,7.34-.43l5.52-.6a21.22,21.22,0,0,0-11.56-.84,24,24,0,0,0-3.17.88c-3.25-1.7-6.51-3.24-9.75-4.58a134.26,134.26,0,0,0-14.58-5.07,27.44,27.44,0,0,0,4.61-1.06,30.54,30.54,0,0,0,5.05-2.13,43.3,43.3,0,0,0-13.38,2.18A143.56,143.56,0,0,0,382,141.63a26,26,0,0,0,10.7-5.74,39.3,39.3,0,0,0-13.15,5.54c-2.79-.2-5.4-.31-7.8-.36s-4.55,0-6.54,0a98.35,98.35,0,0,0-13.75,1.09c4.43-.21,8.87-.22,13.3-.06q7.71.27,15.32,1.26a9.49,9.49,0,0,0,3.76,3.93,14.6,14.6,0,0,0,3,1.37,11.06,11.06,0,0,0-4.34-4.9l-.17-.11a156.55,156.55,0,0,1,25.56,5.94,20.38,20.38,0,0,0,5.46,5.34,21.61,21.61,0,0,0,5.15,2.59c-2.36-2.51-4.8-4.78-6.91-6.68a135.58,135.58,0,0,1,17.39,7.55c1.18.6,2.33,1.23,3.48,1.87a17.06,17.06,0,0,0,2.24,4.48,18,18,0,0,0,3.2,3.59,41,41,0,0,0-2.47-6.35,112.74,112.74,0,0,1,11.83,8.13,52.85,52.85,0,0,0,4.86,13.73,26.09,26.09,0,0,0-2.78-12.06,118.94,118.94,0,0,1,13,12.5,48.45,48.45,0,0,0,4,15.6c.76-5.9-1.69-11.77-3.12-14.59a125.6,125.6,0,0,1,10.62,14,58.06,58.06,0,0,0,1.35,13.4,26.22,26.22,0,0,0,.73-10.1c.76,1.24,1.49,2.48,2.19,3.71,1.56,2.85,3,5.67,4.28,8.45a80.53,80.53,0,0,0,.38,13.63,42.23,42.23,0,0,0,.18-12.44,165.36,165.36,0,0,1,8,21,74.37,74.37,0,0,0-2.19,12.64,38.5,38.5,0,0,0,2.55-11.45c1.62,5.44,2.81,10.41,3.72,14.7.07.3.13.58.2.87a72.84,72.84,0,0,0-2.74,12.95,35.6,35.6,0,0,0,2.67-9.41c.14-.93.24-1.76.31-2.48,1.1,5,1.59,9,2.08,11.87.51,3.21.79,4.92.79,4.92-.18-3.19-.42-6.39-.74-9.61a23.21,23.21,0,0,0,2.58,5.51A12.67,12.67,0,0,0,497.39,260.38Z" transform="translate(-13.85 -26.27)"/><path class="cls-1" d="M357.6,155.7h0a10,10,0,0,0,2.85,5.3,11.12,11.12,0,0,0,2.35,1.87c-1.21-1.9-2.51-3.64-3.51-5l-1.67-2.19c15,3.65,29.51,9.65,41.62,18.09a33.64,33.64,0,0,0,4.21,9.43,38,38,0,0,0-2.8-7.88l-.38-.8a85.25,85.25,0,0,1,11.72,10c.93,2.22,1.95,4.34,2.77,6.14L416.7,195a25.67,25.67,0,0,0-2.66-8.2,68,68,0,0,1,7.37,9.73c.34,2.77.92,5.49,1.41,7.72C423.44,207,424,209,424,209a36.57,36.57,0,0,0-1.28-10.14c0-.15-.09-.29-.13-.44a73.9,73.9,0,0,1,6.38,14.18c.31.95.59,1.91.86,2.86,0,1.58,0,3.08-.1,4.44-.12,3.39-.32,5.84-.32,5.84a30.16,30.16,0,0,0,1.32-6.79,86.54,86.54,0,0,1,2.06,14.16c-.46,2.45-.87,4.83-1.28,6.87-.66,3.28-1.2,5.89-1.2,5.89a36.81,36.81,0,0,0,2.67-8.11c0,1.31,0,2.62,0,3.91-.08,3.52-.31,6.93-.65,10.2-.72,2.47-1.42,4.85-2.1,6.88-1.13,3.46-2.07,5.9-2.07,5.9a34.39,34.39,0,0,0,3.45-7,146.18,146.18,0,0,1-3.18,15.63c-.8,1.12-1.55,2.22-2.21,3.18l-2.49,3.71a24.46,24.46,0,0,0,3.95-4.08c-1,3.47-1.95,6.62-2.86,9.4-1.5,5.24-3.29,9.15-4.21,11.93L419,301.65a192.18,192.18,0,0,0,10.66-25.11,48.43,48.43,0,0,0,.21,9.29,71.38,71.38,0,0,0,.78-12.27,133.49,133.49,0,0,0,5.05-22,141.46,141.46,0,0,0,.4,17.2,217.49,217.49,0,0,0,.36-24.47c.23-3.21.33-6.44.26-9.66,0-.77-.08-1.54-.11-2.3a112.11,112.11,0,0,0,3.51,14.92,170.89,170.89,0,0,0-4-21.13,83.17,83.17,0,0,0-1.7-9.35c.58,1.17,1.17,2.28,1.69,3.29,1.95,3.63,3.55,6.08,3.55,6.08-1.9-5-4.26-9.77-6-13.34-.34-.68-.64-1.33-.91-1.94a72.9,72.9,0,0,0-3.78-9.4,64.46,64.46,0,0,0-3.9-6.91,51.57,51.57,0,0,0,4.61,2.77c2.66,1.41,4.69,2.22,4.69,2.22a78.38,78.38,0,0,0-10.47-6.71,74.59,74.59,0,0,0-7.8-9.51,85,85,0,0,0,11.07,3.28,117.72,117.72,0,0,0-12.65-4.88c-1.68-1.64-3.39-3.2-5.12-4.64a84.24,84.24,0,0,0-6.92-5.15,76.45,76.45,0,0,0,13.5,1,114.61,114.61,0,0,0-15-2,100.2,100.2,0,0,0-14.51-7.66,121.09,121.09,0,0,0-19.78-6.53c-3.28-.78-6.18-1.34-8.66-1.74-1.78-.29-3.34-.5-4.64-.66-.85-.12-1.58-.19-2.21-.24L349.8,154l1.36.27C353.31,154.72,355.46,155.18,357.6,155.7Z" transform="translate(-13.85 -26.27)"/><path class="cls-1" d="M365.07,152.85h0a18,18,0,0,0,2.67-1.51,25.59,25.59,0,0,0-5.54,1.53,28.53,28.53,0,0,0-3.21,1.48A14.41,14.41,0,0,0,365.07,152.85Z" transform="translate(-13.85 -26.27)"/><path class="cls-1" d="M383.53,154.8a43.64,43.64,0,0,0-11.31.94C377.5,156.8,383.53,154.8,383.53,154.8Z" transform="translate(-13.85 -26.27)"/><path class="cls-2" d="M500.36,237.77a134.8,134.8,0,0,0-25.19-60.22A125.57,125.57,0,0,0,383.36,128l-2.69.05a69,69,0,0,0-8.48.69,31.5,31.5,0,0,0-3.11.56,58.87,58.87,0,0,0-18.2,8c-.71.45-1.41.91-2.1,1.39,0,0,.72-.65,2.06-1.69l.65-.5a50.14,50.14,0,0,1,7.61-4.72,40,40,0,0,1,10.24-3.51c.43-.08.86-.16,1.29-.22l-1.26.09a85.45,85.45,0,0,0,2.32-23.44,82.78,82.78,0,0,0-8.18-32.77,93.86,93.86,0,0,0-32.39-37.13,85.11,85.11,0,0,0-12-6.74c-1.45-.65-2.57-1.1-3.32-1.38a10.43,10.43,0,0,0-1.11-.37C330,44.65,341.06,65.51,345.38,85.14a95.46,95.46,0,0,1,2.34,21.61c.06,1,.1,2.16.12,3.34a83.82,83.82,0,0,1-.64,11.62,85.53,85.53,0,0,1-2.11,11.11c-.57,2.19-1.24,4.38-2,6.53l.91-3.88c.16-.73.33-1.55.51-2.44.27-1.35.55-2.87.82-4.54.16-1,.31-2,.45-3.08.27-1.86.49-3.86.67-5.94A107.64,107.64,0,0,0,337.05,100a123.94,123.94,0,0,0-20.49-24.35c-7.94-6.8-16.28-13-25.36-17.46a118.6,118.6,0,0,0-54.82-13.56,123.91,123.91,0,0,0-46.59,8.71,75.87,75.87,0,0,0-9.32,4c-2.92,1.45-5.79,2.72-8.4,4.21-5.14,3.2-9.92,5.9-13.92,8.86l-10.47,8.11c-2.92,2.52-5.26,4.86-7.2,6.67l-5.82,5.7c18.48-9.22,37.44-16.39,56.27-20.08a140.75,140.75,0,0,1,54.44,0,122.74,122.74,0,0,1,45.43,20q4,3,7.7,6.17l-.2-.23.51.49.05.05c.58.57,1.57,1.56,2.86,2.95a90.17,90.17,0,0,1,7.94,9.77,88.71,88.71,0,0,1,14.28,32.47s-.52-1.59-1.41-4.35a117.48,117.48,0,0,0-11.2-23.79c.29.64.61,1.4.93,2.27a18.11,18.11,0,0,1,.76,8.75c2.11,2.51,4.15,5.07,6.1,7.65l-3-3.11c-1.93-1.94-4.52-5-8.3-8.3l-14.53-4.11a30.35,30.35,0,0,1,5.24.52,28.92,28.92,0,0,1,8.61,3A116.94,116.94,0,0,0,293,109.69c-1.19-.85-2.45-1.67-3.75-2.48a18.88,18.88,0,0,1-3.26,1,20.69,20.69,0,0,1-7.62.34s1.51-.35,3.59-.71a37.84,37.84,0,0,1,7.24-.68,81.29,81.29,0,0,0-16.86-7.85c-2.22.75-8.21,2.74-14.25,4.55a33.56,33.56,0,0,1,4.71-2.39,31.28,31.28,0,0,1,8.93-2.36l-.16-.06a57.28,57.28,0,0,0-17.22-2.62c-2.46,1.9-7,5.49-11.49,9.21a34.48,34.48,0,0,1,10.35-9.2,55.18,55.18,0,0,0-9.3,1A58.45,58.45,0,0,0,232,101l-.48.49c-2.21,2.31-5,5.5-7.61,8.85a28.94,28.94,0,0,1,5.74-8.33,81.11,81.11,0,0,0-10,5.41l-9.17,11.25a42.14,42.14,0,0,1,3.09-5.19,44,44,0,0,1,3.34-4.26c-.48.33-1,.66-1.44,1a123.17,123.17,0,0,0-12.16,10.07A114.65,114.65,0,0,1,194,134.77a73.79,73.79,0,0,1,7.58-12.84,160,160,0,0,0-13.07,14.34A102.8,102.8,0,0,1,180.41,151a65.91,65.91,0,0,1,6.08-12.15,207.63,207.63,0,0,0-15.85,23.59,136.16,136.16,0,0,1,8.2-15.59c.26-.44.54-.89.83-1.35-2.44,2.61-5.47,5.87-8.44,9.18a47.62,47.62,0,0,1,10.37-12.26,158.59,158.59,0,0,1,10.65-14.81,146,146,0,0,1-14.81,12.25s7.44-8.09,15.51-13.11c2.54-3.07,5.36-6.2,8.47-9.31-3.94,1.2-8.78,2.24-12.77,5.13a12.21,12.21,0,0,1,1.65-1.47,20.28,20.28,0,0,1,5-2.76c2.27-.94,4.94-1.63,7.68-2.44,1.48-1.43,3-2.86,4.64-4.28,2-1.74,4.19-3.45,6.45-5.1-4.22,1.12-9.48,2.39-14.8,3.32a129.79,129.79,0,0,1,16.85-4.79,80.83,80.83,0,0,1,13.48-7.54c-3.14,0-6.7-.21-10.24-.57A94.77,94.77,0,0,1,232,96.54c.41-.16.81-.34,1.23-.49a55.75,55.75,0,0,1,10.31-2.8,33,33,0,0,1-8.7-4.19l5.4,2,5.54,1.86a59.62,59.62,0,0,1,17.73.3,51.77,51.77,0,0,1-5-5.37,39.13,39.13,0,0,1,6.79,5.7l.71.14a64.66,64.66,0,0,1,16.14,5.82,40.72,40.72,0,0,1-4.65-7.8s1.47,1.9,3.28,4.21c1,1.37,2.22,3,3.39,4.67a81.85,81.85,0,0,1,12.13,8.23c.28.22.55.46.82.69A71.16,71.16,0,0,1,293.6,98.3a46.52,46.52,0,0,1,4.44,12,126,126,0,0,1,14.66,14.84c-.1-.79-.24-1.88-.4-3.15a75.41,75.41,0,0,0-1.86-8.92,121,121,0,0,0-11.79-15.76A87.38,87.38,0,0,0,264.17,86a82.57,82.57,0,0,0-25.91,1.19,80.82,80.82,0,0,0-22.67,8.63c-13.59,7.62-23.22,18.06-30.24,27.81a128,128,0,0,0-13.93,27.53c-1.37,4-2.62,7.6-3.54,10.75-.73,3.22-1.37,6-1.88,8.2L164.57,177c8.82-15.36,18.65-29.75,30.13-41.35a36.05,36.05,0,0,1,4.39-4.18l4.48-4c3.07-2.44,6.28-4.64,9.41-6.79,3.38-1.71,6.43-4,9.9-5.2l5-2.16,5.15-1.55c27.48-7.78,56.1,3,73.09,19A65.16,65.16,0,0,1,315.46,141c.38.07.76.15,1.13.25a16.15,16.15,0,0,1,6.54,3.34,13.3,13.3,0,0,1,1.25,1.24,12.93,12.93,0,0,0-1.46-1.07l-.63-.41a19,19,0,0,0-6-2.24l-.23,0c-4.67-1-10.73-.05-16.89,1.4-1.95.68-3.72,1.45-5.36,2.17a40.66,40.66,0,0,0-7.28,3.84c-3.87,2.38-6,3.86-6,3.86,9.93-.54,19.11-2.74,27.47-2.72,2.07-.08,4,.25,5.95.22.73.08,1.44.21,2.13.35a52.9,52.9,0,0,0-12.51,23.09,58.21,58.21,0,0,0-.81,23.54v0l-23.87,10.69c-1.59.72-150.1,68.79-132.5,184.91-1.44-.3-2.87-.58-4.3-.84a156.16,156.16,0,0,0-57.76,1.08,135.16,135.16,0,0,0-41.28,15.77,127.17,127.17,0,0,0-22.63,16.64c-2.29,2.26-4,4-5.07,5.23a20.18,20.18,0,0,0-1.52,1.81c10.22-6.16,22.06-10.74,33.53-14.08a153.46,153.46,0,0,1,35-5.89,169.61,169.61,0,0,1,66.78,10.2c5.31,1.46,10.25,4.09,15.29,6.19l7.48,3.24,7.15,3.92q7.26,4,14.38,7.84l7.89,4.41c2.64,1.42,5.38,2.65,8.05,4a169.6,169.6,0,0,0,65.15,16.55,153.64,153.64,0,0,0,56.09-8.19,161.66,161.66,0,0,0,38.39-19.15A154.48,154.48,0,0,0,390.27,425c2.26-2.18,3.91-4,5-5.18l1.71-1.95c-43.59,23.67-91.39,31.32-133.1,21.56a189.67,189.67,0,0,1-30.29-9.72l-7.24-3.12-5.1-2.5c-15.42-17.78-22.7-37.93-21.65-60,3.35-70.35,87.72-139.74,88.58-140.43l34.31-27.9a46.58,46.58,0,0,0,25.23-26.95c.24-.26.47-.52.7-.79a41.14,41.14,0,0,1,9.87,7.37c5.91,6.07,7.82,13.85,7.75,21.2a78.26,78.26,0,0,1-2.43,18.36c-1.11,4.58-1.74,7.2-1.74,7.2,7.45-7.17,13.13-17,13.91-28.28a31.26,31.26,0,0,0-3.32-16.36,28.36,28.36,0,0,0-8.55-9.9c-3.08-.83-6.45-1.62-9.88-2.27l-.73-.15a48.44,48.44,0,0,1,8.37.9l.1,0a48.52,48.52,0,0,1,14.38,5.12c1.4.61,2.79,1.25,4.15,1.94,26.09,12.72,43.67,36.38,46.52,60.6,1.77,12.08.52,24-1.67,34.74a176.22,176.22,0,0,1-9.28,27.68l-4.58,10.3-3.9,7.49-3.23,6.44c13.38-12.3,25.41-26.82,33.64-43.9a44,44,0,0,0,2.85-6.51l2.5-6.69a135,135,0,0,0,3.46-14c.46-4.81,1.45-9.57,1.15-14.44,0-2.42,0-4.84-.16-7.25-.33-2.4-.67-4.8-1-7.18a41.27,41.27,0,0,0-1.52-7c-.66-2.3-1.19-4.64-2-6.87-1.81-4.39-3.44-8.85-5.88-12.82a86.5,86.5,0,0,0-16.55-21.32,88.24,88.24,0,0,0-14.82-11.48c-1.81-.73-3.92-1.55-6.28-2.42s-4.76-1.73-7.47-2.64c-6.47-2.21-14.09-4.84-22.62-5.07a77.2,77.2,0,0,0-9.09.22c-3,.23-6,.59-9,1l-2.15.3-6.27,1,6.48-1.35.12,0,1.85-.35c2.64-.49,5.82-1,9.43-1.38,1.88-.18,3.85-.32,5.95-.37,7.12-.32,15.3,1.35,23.2,4.29,4.32,1.52,8.7,3.19,13,5,2.21,1,4.39,1.94,6.53,3A116.21,116.21,0,0,1,428,171.62a124.87,124.87,0,0,1,34.23,30.67,140.64,140.64,0,0,1,20.33,36.12,78.7,78.7,0,0,1,3.17,8.82c.91,2.9,2,5.7,2.72,8.46,1.26,5.54,2.81,10.72,3.7,15.5s1.64,9.17,2.31,12.95.82,7.11,1.17,9.8l1.06,8.36C501.83,281.63,503.62,259.55,500.36,237.77ZM181.78,363.19a98.22,98.22,0,0,0,8,44.61,211,211,0,0,0-24.32-9.37c-12.58-57.66,22.74-103.25,58.37-133.22C203,292.47,183.51,327.16,181.78,363.19ZM346.11,70.84a35.14,35.14,0,0,1,5.53,1.91q-1.49-3.1-3.22-6.2c-.23-.4-.48-.81-.72-1.22a44.74,44.74,0,0,1-8.6-4.62A30.85,30.85,0,0,1,347,64.07q-2.18-3.64-4.63-7.26a47.94,47.94,0,0,1-8.7-6.28,32.23,32.23,0,0,1,7.54,4.6c-2.74-3.9-5.71-7.74-8.86-11.47a11.67,11.67,0,0,1-1.7-.59A11.31,11.31,0,0,1,326.36,40a23.93,23.93,0,0,1,2.34,1,18,18,0,0,1,2.54,1.47c-2.39-2.76-4.88-5.47-7.46-8.08,0,0,2.12,1.45,5.57,4.41a39.4,39.4,0,0,1-2.67-6.59,28.68,28.68,0,0,1,4.23,8l.88.8c1.72,1.56,3.67,3.42,5.73,5.57a14.41,14.41,0,0,1,.71-5.69s.19,1.19.27,2.81a22.36,22.36,0,0,1-.14,3.76,110.78,110.78,0,0,1,9.75,11.84A30.69,30.69,0,0,1,349.58,53a22.66,22.66,0,0,1-.72,7.22l.57.82a92.19,92.19,0,0,1,6.21,10.62,36.48,36.48,0,0,1,1.21-9.65s.79,5.49-1.05,10c1,2.06,1.95,4.2,2.79,6.41A47.52,47.52,0,0,1,360.38,72a35.73,35.73,0,0,1-1.14,8.23,64.74,64.74,0,0,1,2.34,8.28A53.61,53.61,0,0,1,363.93,83a45.35,45.35,0,0,1-1,4.58c-.25.89-.56,1.87-.91,2.87.28,1.6.51,3.23.66,4.89a52.79,52.79,0,0,1,.18,7.12,71.33,71.33,0,0,1,4-7,55,55,0,0,1-4.19,9.53,46.09,46.09,0,0,1-2.11,10.34c-.06.21-.14.4-.21.61,1.68-2.45,3.68-5.39,5.66-8.35a37.19,37.19,0,0,1-6.84,11.45,50.24,50.24,0,0,1-6.86,11.67c-.46.58-.92,1.15-1.4,1.71l.85-1.57.35-.64a57.74,57.74,0,0,0,3.07-6.35,51.32,51.32,0,0,0,1.91-5.4c-.08-.7-.27-2.08-.66-3.86a40.84,40.84,0,0,0-3.25-9,14.58,14.58,0,0,1,2.67,3.9,15.28,15.28,0,0,1,1.53,7.93,54.43,54.43,0,0,0,1.89-14.83l-7.43-12.12a26.88,26.88,0,0,1,3.36,3.71,26.18,26.18,0,0,1,4.05,7.56c0-.72,0-1.44-.09-2.17a63.2,63.2,0,0,0-2.85-15c-1.71-1-3.9-2.12-6.21-3.24a12.94,12.94,0,0,1,3.58.78,13.53,13.53,0,0,1,2.18,1,89.1,89.1,0,0,0-3.54-9A46.21,46.21,0,0,1,346.11,70.84ZM285.83,83.49a59.62,59.62,0,0,1,7.21.06,61.06,61.06,0,0,1,8.69,1.2C299.9,83.15,298,81.56,296,80a98.31,98.31,0,0,0-14.87-9.47,203,203,0,0,1-23.07.8,125.43,125.43,0,0,1,22.43-1.13,96.65,96.65,0,0,0-14-5.83,106.2,106.2,0,0,0-10.32-2.74c-1.35.3-2.92.62-4.68.94A98.8,98.8,0,0,1,229.89,64l10.3-1c4.15-.44,9.1-1.1,14.12-1.77a116.14,116.14,0,0,0-24.82-2.16l-1,0-2.2.55c-5.69,1.5-13.19,3.71-20.62,6.12a91.62,91.62,0,0,1,9.58-3.94c2.52-.89,5.42-1.76,8.49-2.52a163.9,163.9,0,0,0-27.26,4.08c-3.58,1.86-9.69,5.12-15.6,8.71a47.08,47.08,0,0,1,5.62-4.33,48,48,0,0,1,6-3.4A195.86,195.86,0,0,0,169,72.13a27.71,27.71,0,0,1-6.69,5.09,17.16,17.16,0,0,1,2-2.28,17.68,17.68,0,0,1,2.16-1.78c-5.28,2.19-10.49,4.59-15.58,7.2a135.8,135.8,0,0,1,16.47-9l-1,.18c-3.3.58-7.62,1.53-11.95,2.64a32.29,32.29,0,0,1,14.82-3.68h0c4.84-2.2,10.65-4.63,17.3-6.9-3.89.3-8.41.54-12.93.55a126.91,126.91,0,0,1,16.73-1.8,156.82,156.82,0,0,1,30.6-6.47q1.44-.15,2.91-.27c-4.37-1-9.86-2.39-15.24-4.13a132.72,132.72,0,0,1,18.09,3.92,112.1,112.1,0,0,1,28.82,1.81l-.6-.42c-3.56-2.5-8.42-5.6-13.43-8.49a46.58,46.58,0,0,1,7,3.15,48.35,48.35,0,0,1,8.8,6.13,99.27,99.27,0,0,1,19.17,6.18A113.59,113.59,0,0,1,270.22,54a80.46,80.46,0,0,1,7.9,10.52,95.21,95.21,0,0,1,13.67,7.71A97.55,97.55,0,0,1,300,78.4a136,136,0,0,1-6.24-15.2A90.55,90.55,0,0,1,301,79.32,110.86,110.86,0,0,1,317.88,97.7a123.06,123.06,0,0,1-1.11-16.86,77.55,77.55,0,0,1,1.59,17.52c.52.72,1,1.45,1.54,2.18.39.57.76,1.16,1.14,1.73h0a141.23,141.23,0,0,1,8,13.66c.05-1.07.1-2.43.12-4a89.51,89.51,0,0,0-1.11-14,32.48,32.48,0,0,1,1.71,6.6,31.37,31.37,0,0,1-.39,12c2.56,5,4.84,10.15,6.88,15.3.41-1.91,1.92-9.1,2.88-16.37a31.47,31.47,0,0,1,.05,5.71A28.81,28.81,0,0,1,336.32,132c.48,1.21.95,2.42,1.4,3.63l-2.27-4.56c-1.17-2.33-2.68-5.57-4.83-9.39a110.79,110.79,0,0,1-12.77-11.2,71.06,71.06,0,0,1,12,9.94c-.38-.66-.78-1.33-1.21-2a95.23,95.23,0,0,0-5.39-8.66c-1.65-2.43-3.38-5-5.41-7.63a42.83,42.83,0,0,1-13.66-5.43l5.55,1.87,5.37,1.91c.68.23,1.35.5,2,.76-.32-.39-.61-.77-.94-1.16a104.19,104.19,0,0,0-13.37-14.32ZM315,149.54a4.79,4.79,0,0,1,3.81-3.39h.11l-.13,0L317.6,146a.43.43,0,0,0,0,.05l-.13-.06a41.1,41.1,0,0,0-6.93-.08,11.75,11.75,0,0,1-4.3,3.9,7.38,7.38,0,0,1,1-1.71,6.16,6.16,0,0,1,3.07-2.17,72.06,72.06,0,0,0-10,1.54l-.89.84a25.59,25.59,0,0,1-3.19,2.51,6.12,6.12,0,0,1,2.08-2.89,153.69,153.69,0,0,0-15.77,4.73,85.68,85.68,0,0,1,13-5c.65-.19,1.33-.38,2-.56a11.54,11.54,0,0,1-2.48-.58,9.24,9.24,0,0,1,5.05-.07,58,58,0,0,1,7.68-1.29,10.47,10.47,0,0,1-2.92-1.71,7.61,7.61,0,0,1,4.58,1.58,33.86,33.86,0,0,1,6.74.19,8.74,8.74,0,0,1-2.54-2.72,6.07,6.07,0,0,1,3.66,2.91c.37.06.75.13,1.11.21a21.36,21.36,0,0,1,2.54.78,15.55,15.55,0,0,1,2.35,1.07l-.89-.31c-.43-.11-1-.38-1.66-.58a5.44,5.44,0,0,0-.88-.19l-.14,0-.66.39-.77.46C317.42,147.78,316.27,148.6,315,149.54Zm43.59,19.62a18.16,18.16,0,0,1,2.82.2,17.13,17.13,0,0,1,6.91,2.57l-3.45-.75a50.76,50.76,0,0,1-5.74-1.59c.37.29.75.59,1.12.91a34.15,34.15,0,0,1,3.91,3.82v0l0,.06c.28.33.57.65.85,1a12.36,12.36,0,0,1,1.61.55,11.83,11.83,0,0,1,4.66,3.47s-1.1-.48-2.52-1.2a28.7,28.7,0,0,1-2.82-1.63,29.87,29.87,0,0,1,2.87,4.77,14.3,14.3,0,0,1,1.76,1.51,13.69,13.69,0,0,1,3.16,4.8,25.91,25.91,0,0,1-2-1.93,21.5,21.5,0,0,1-2.24-2.83,25.64,25.64,0,0,1,.88,2.51,25.05,25.05,0,0,1,.79,3.51.22.22,0,0,0,0-.08,24.31,24.31,0,0,1,2.3,8.16,16.64,16.64,0,0,1-2-4.7,32.23,32.23,0,0,1-.81,8.15,14.69,14.69,0,0,1,.11,6.5,9.94,9.94,0,0,1-.72-4.16c-.2.65-.4,1.29-.63,1.92,0,0,.13-.66.38-1.85a8.93,8.93,0,0,1-2.51,3.35s.35-1,.9-2.3a18.59,18.59,0,0,1,2.2-4,42.48,42.48,0,0,0,.44-5.39c0-.24,0-.48,0-.72a10.39,10.39,0,0,1-1.46,4.13,17.83,17.83,0,0,1,.13-2.37,11.84,11.84,0,0,1,1.11-3.94c0-.15,0-.29-.05-.44a14.44,14.44,0,0,0-.64-3.64c-.08-.38-.2-.76-.31-1.14a8.24,8.24,0,0,1-.88,3.67,43.06,43.06,0,0,1,0-6.37,32,32,0,0,0-3.15-5.8,17.24,17.24,0,0,1,.68,5.2,28.87,28.87,0,0,1-1.08-2.82,21.54,21.54,0,0,1-1-4.22,37.44,37.44,0,0,0-3.12-3.47c-.39-.39-.8-.76-1.2-1.13l.17.26a9.33,9.33,0,0,1,1.55,4.75s-.59-.86-1.26-2.05a15.45,15.45,0,0,1-1.64-4,51.38,51.38,0,0,0-7.58-5.33L351,165c-.56-.32-1.13-.63-1.7-.93-1.66-.88-3.37-1.69-5.11-2.41a36.69,36.69,0,0,1,4.81,1.83l.41.19c.6.28,1.23.58,1.9.93l1.11.58A47,47,0,0,1,358.59,169.16Zm17.17-5.62a14.71,14.71,0,0,1,3.82,5.37S376.28,166.86,375.76,163.54Zm15.79,10.18c-1.74-2.17-4-4.86-5.89-7.65a25.74,25.74,0,0,1,3.39,3.05,28,28,0,0,1,5.5,8.3Zm10.58-12s-9.28.82-16.86-1.24A96.05,96.05,0,0,1,402.13,161.71Zm-18.6-6.91s-6,2-11.31.94A43.64,43.64,0,0,1,383.53,154.8Zm-15.78-3.46a18,18,0,0,1-2.67,1.51h0a14.41,14.41,0,0,1-6.07,1.5,28.53,28.53,0,0,1,3.21-1.48A25.59,25.59,0,0,1,367.75,151.34Zm-18,2.68h.07l1.38.09c.63,0,1.36.12,2.21.24,1.3.16,2.86.37,4.64.66,2.48.4,5.38,1,8.66,1.74a121.09,121.09,0,0,1,19.78,6.53A100.2,100.2,0,0,1,401,171a114.61,114.61,0,0,1,15,2,76.45,76.45,0,0,1-13.5-1,84.24,84.24,0,0,1,6.92,5.15c1.73,1.44,3.44,3,5.12,4.64a117.72,117.72,0,0,1,12.65,4.88,85,85,0,0,1-11.07-3.28,74.59,74.59,0,0,1,7.8,9.51,78.38,78.38,0,0,1,10.47,6.71s-2-.81-4.69-2.22a51.57,51.57,0,0,1-4.61-2.77,64.46,64.46,0,0,1,3.9,6.91,72.9,72.9,0,0,1,3.78,9.4c.27.61.57,1.26.91,1.94,1.77,3.57,4.13,8.37,6,13.34,0,0-1.6-2.45-3.55-6.08-.52-1-1.11-2.12-1.69-3.29a83.17,83.17,0,0,1,1.7,9.35,170.89,170.89,0,0,1,4,21.13,112.11,112.11,0,0,1-3.51-14.92c0,.76.09,1.53.11,2.3.07,3.22,0,6.45-.26,9.66a217.49,217.49,0,0,1-.36,24.47,141.46,141.46,0,0,1-.4-17.2,133.49,133.49,0,0,1-5.05,22,71.38,71.38,0,0,1-.78,12.27,48.43,48.43,0,0,1-.21-9.29A192.18,192.18,0,0,1,419,301.65l1.55-4.21c.92-2.78,2.71-6.69,4.21-11.93.91-2.78,1.9-5.93,2.86-9.4a24.46,24.46,0,0,1-3.95,4.08l2.49-3.71c.66-1,1.41-2.06,2.21-3.18a146.18,146.18,0,0,0,3.18-15.63,34.39,34.39,0,0,1-3.45,7s.94-2.44,2.07-5.9c.68-2,1.38-4.41,2.1-6.88.34-3.27.57-6.68.65-10.2,0-1.29,0-2.6,0-3.91a36.81,36.81,0,0,1-2.67,8.11s.54-2.61,1.2-5.89c.41-2,.82-4.42,1.28-6.87a86.54,86.54,0,0,0-2.06-14.16,30.16,30.16,0,0,1-1.32,6.79s.2-2.45.32-5.84c.06-1.36.08-2.86.1-4.44-.27-.95-.55-1.91-.86-2.86a73.9,73.9,0,0,0-6.38-14.18c0,.15.09.29.13.44A36.57,36.57,0,0,1,424,209s-.53-2-1.15-4.77c-.49-2.23-1.07-5-1.41-7.72a68,68,0,0,0-7.37-9.73,25.67,25.67,0,0,1,2.66,8.2l-1.94-4.22c-.82-1.8-1.84-3.92-2.77-6.14a85.25,85.25,0,0,0-11.72-10l.38.8a38,38,0,0,1,2.8,7.88,33.64,33.64,0,0,1-4.21-9.43c-12.11-8.44-26.61-14.44-41.62-18.09l1.67,2.19c1,1.34,2.3,3.08,3.51,5a11.12,11.12,0,0,1-2.35-1.87,10,10,0,0,1-2.85-5.3h0c-2.14-.52-4.29-1-6.44-1.4L349.8,154h-.11c-.7,0-1.06-.07-1-.21ZM498.3,271.55s-.28-1.71-.79-4.92c-.49-2.84-1-6.89-2.08-11.87-.07.72-.17,1.55-.31,2.48a35.6,35.6,0,0,1-2.67,9.41,72.84,72.84,0,0,1,2.74-12.95c-.07-.29-.13-.57-.2-.87-.91-4.29-2.1-9.26-3.72-14.7a38.5,38.5,0,0,1-2.55,11.45,74.37,74.37,0,0,1,2.19-12.64,165.36,165.36,0,0,0-8-21,42.23,42.23,0,0,1-.18,12.44,80.53,80.53,0,0,1-.38-13.63c-1.31-2.78-2.72-5.6-4.28-8.45-.7-1.23-1.43-2.47-2.19-3.71a26.22,26.22,0,0,1-.73,10.1,58.06,58.06,0,0,1-1.35-13.4,125.6,125.6,0,0,0-10.62-14c1.43,2.82,3.88,8.69,3.12,14.59a48.45,48.45,0,0,1-4-15.6,118.94,118.94,0,0,0-13-12.5,26.09,26.09,0,0,1,2.78,12.06,52.85,52.85,0,0,1-4.86-13.73A112.74,112.74,0,0,0,435.37,162a41,41,0,0,1,2.47,6.35,18,18,0,0,1-3.2-3.59,17.06,17.06,0,0,1-2.24-4.48c-1.15-.64-2.3-1.27-3.48-1.87a135.58,135.58,0,0,0-17.39-7.55c2.11,1.9,4.55,4.17,6.91,6.68a21.61,21.61,0,0,1-5.15-2.59,20.38,20.38,0,0,1-5.46-5.34,156.55,156.55,0,0,0-25.56-5.94l.17.11a11.06,11.06,0,0,1,4.34,4.9,14.6,14.6,0,0,1-3-1.37,9.49,9.49,0,0,1-3.76-3.93q-7.6-1-15.32-1.26c-4.43-.16-8.87-.15-13.3.06a98.35,98.35,0,0,1,13.75-1.09c2-.05,4.17-.06,6.54,0s5,.16,7.8.36a39.3,39.3,0,0,1,13.15-5.54,26,26,0,0,1-10.7,5.74,143.56,143.56,0,0,1,22.83,3.85,43.3,43.3,0,0,1,13.38-2.18,30.54,30.54,0,0,1-5.05,2.13,27.44,27.44,0,0,1-4.61,1.06,134.26,134.26,0,0,1,14.58,5.07c3.24,1.34,6.5,2.88,9.75,4.58a24,24,0,0,1,3.17-.88,21.22,21.22,0,0,1,11.56.84l-5.52.6c-2.17.2-4.68.43-7.34.43a117.52,117.52,0,0,1,14.1,9,14.32,14.32,0,0,1,3.8.55,24.58,24.58,0,0,1,10.29,5.82,48.51,48.51,0,0,1-5.26-1.68c-1.93-.67-4-1.73-6.33-2.74.47.37.95.73,1.41,1.11a109.05,109.05,0,0,1,15.74,15.89c3.2,1,7.72,2.86,10.88,6.39a46.83,46.83,0,0,1-8.54-3.39c2.32,3.06,4.52,6.25,6.56,9.56l.11.19c.47.22,1,.46,1.47.74a18.81,18.81,0,0,1,8.26,8.44l-4.4-3.23c-1-.75-2.12-1.58-3.3-2.49,2.09,3.68,4,7.49,5.72,11.38,1.29,1,5.87,4.7,8.29,9.28a56.92,56.92,0,0,1-8-8.67,140.1,140.1,0,0,1,7.09,20.19c.31,1.21.6,2.42.89,3.64.57.57,1.32,1.36,2.16,2.33a33.36,33.36,0,0,1,5.21,7.92,68.74,68.74,0,0,1-7.08-9.07,183.29,183.29,0,0,1,3.61,22.06,12.67,12.67,0,0,1,2.75,7.07,23.21,23.21,0,0,1-2.58-5.51C497.88,265.16,498.12,268.36,498.3,271.55Z" transform="translate(-13.85 -26.27)"/></svg>