<svg id="Calque_1" data-name="Calque 1" xmlns="http://www.w3.org/2000/svg" viewBox="0 0 296.57 455"><defs><style>.cls-1{fill:#007338;}</style></defs><title>Production locales</title><path class="cls-1" d="M344.63,485H162.87a12.75,12.75,0,0,1-12.73-12.74V386.61a12.74,12.74,0,0,1,12.73-12.73H344.63a12.74,12.74,0,0,1,12.73,12.73v85.65A12.75,12.75,0,0,1,344.63,485ZM165.15,470h177.2V388.89H165.15Z" transform="translate(-106.22 -30)"/><path class="cls-1" d="M303.94,451.21H203.56a6.12,6.12,0,0,1-6.12-6.12v-31.3a6.12,6.12,0,0,1,6.12-6.12H303.94a6.12,6.12,0,0,1,6.12,6.12v31.3A6.12,6.12,0,0,1,303.94,451.21Zm-99-7.51h97.6V415.17H205Z" transform="translate(-106.22 -30)"/><path class="cls-1" d="M254.5,174.16A69.94,69.94,0,0,1,204,152.43a73.13,73.13,0,0,1-20.81-51.1,71.33,71.33,0,1,1,142.66,0A73.13,73.13,0,0,1,305,152.43,69.94,69.94,0,0,1,254.5,174.16ZM254.5,45a56.37,56.37,0,0,0-56.31,56.31c0,31.34,25.79,57.81,56.31,57.81s56.31-26.47,56.31-57.81A56.37,56.37,0,0,0,254.5,45Z" transform="translate(-106.22 -30)"/><path class="cls-1" d="M320.25,368.62H188.75a13.5,13.5,0,0,1-11.45-6.29L111.86,259.17a36,36,0,0,1,22-54.25l93.32-22.22a118.33,118.33,0,0,1,54.56,0l93.32,22.22a36,36,0,0,1,22,54.25L331.7,362.33A13.49,13.49,0,0,1,320.25,368.62Zm-130.7-15h129.9l65-102.48a21,21,0,0,0-12.84-31.61L278.3,197.3a103.45,103.45,0,0,0-47.6,0l-93.32,22.22a21,21,0,0,0-12.84,31.61Z" transform="translate(-106.22 -30)"/></svg>