<svg id="Calque_1" data-name="Calque 1" xmlns="http://www.w3.org/2000/svg" viewBox="0 0 491.25 295.32"><defs><style>.cls-1,.cls-3{fill:none;}.cls-2{fill:#007338;}.cls-3{stroke:#007338;stroke-linecap:round;stroke-linejoin:round;stroke-width:0;}</style></defs><title>volcan</title><polygon class="cls-1" points="378.29 180.21 383.73 182.92 388.8 185.45 377.09 171.3 384.29 172.03 394.06 185.76 402.66 197.85 385.19 167.44 383.55 167.39 374.65 167.12 373.61 167.09 364.43 155.99 350.55 139.26 411.83 243.32 378.29 180.21"/><polygon class="cls-1" points="305.31 57.01 306.81 57.96 328.98 72.02 333.38 74.81 364.43 127.38 335.33 73.09 327.06 68.66 306.91 57.87 305.31 57.01"/><polygon class="cls-1" points="303.43 48.82 302.94 46.68 301.93 46.09 297.36 43.4 301.06 47.35 302.01 48.38 302.33 49.45 304.54 57.01 306.53 58.22 322.36 67.82 306.81 57.96 305.31 57.01 303.43 48.82"/><polygon class="cls-1" points="94.31 222.59 117.44 206.21 162.02 127.56 174.92 94.47 177.12 88.82 173.33 94.95 94.31 222.59"/><polygon class="cls-1" points="166.96 121.7 181.31 92.55 183.62 87.87 197.19 60.31 183.05 79.96 182.48 84.09 182.07 87.06 179.43 93.11 166.96 121.7"/><polygon class="cls-1" points="326.65 83.55 320.61 79.4 313.33 73.48 326.75 86.82 342.48 111.17 342.19 110.6 329.37 85.42 326.65 83.55"/><polygon class="cls-1" points="75.7 258.64 70.46 260.03 66.86 260.98 63.15 271.51 64.96 269.52 68.24 265.9 76.21 262.85 109.12 214.67 75.7 258.64"/><polygon class="cls-1" points="390.45 150.76 393 153.62 456 258.94 393 146.93 384.48 140.36 378.41 135.66 369.67 127.38 390.45 150.76"/><polygon class="cls-1" points="334.29 81.3 326.08 73.33 362.6 141.01 362.75 141.27 373.79 161.73 380.7 162.41 386.54 162.98 399.9 181.24 417.59 205.41 452.76 265.35 427.71 221.7 427.71 221.7 390.44 156.74 385.71 156.74 378.52 156.74 371.5 144.7 365.31 134.07 334.92 81.91 334.29 81.3"/><polygon class="cls-1" points="451.55 271.84 441.52 268.71 434.76 266.6 419.36 244.95 402.17 220.8 433.11 270.41 434.02 270.48 442.93 271.18 451.55 271.84"/><path class="cls-1" d="M306.46,136.61l6,12.78-2.5,1.17-6.09-13c-.93.32-1.87.63-2.8.92L312.73,177l-13.84-37.86c-1.24.37-2.48.72-3.7,1l11.54,36.33,14,4.17,21.56,40.78-2.45,1.29-21-39.75-14.34-4.26-12-37.91-1.51.34-3.62-21.87a99.35,99.35,0,0,0,14.24-4.53l4.88,2.35,2.36,7.87.14.47,2.72,9.11.48,1.62,1.57,5.24-1.18-5-.49-2.05-2.35-9.93,0-.08-2.15-9L303.38,114l.17-.07a6.84,6.84,0,0,0,.27-1.87l11,4.91,4.48,2,1.9.86,2.74,2.81,10.48,10.78,2,2.05-5.2-7.66L325.13,119l-.53-.78,0,0-.07,0-2.21-.83-6.13-2.3-12.47-4.68a3.8,3.8,0,0,0-.26-.84c-17.07-13.39-44.11-24.26-76.58-.91a4.34,4.34,0,0,0-.36,1.49l-10.24-3.59-6.17,10.43-3.37,5.69L191.64,148l-2.06,3.48,2.15-3.18,16.06-23.68,4.43-6.55,4.58-6.75,9.72.74a5.41,5.41,0,0,0,.22,1,103.22,103.22,0,0,0,13,4.81l-4.63,4.48L234,127.66l-1.73,8.1,2.5-7.85,1.17-3.67,5.83-5.77a91.93,91.93,0,0,0,43.34,1.32l.39.22,5,21.24c-1.57.34-3.14.65-4.68.92L287,153.25l-2.28-10.91c-2.43.4-4.83.71-7.19.95L286,187.12l14.39,7.18,14.52,77.4-19.45-73.13-11.72-5.21-6.64-50c-1.37.13-2.72.23-4.06.31v35.67l-3.6-34.64.81-.9c-1.31,0-2.6.07-3.88.07a113.17,113.17,0,0,1-12.45-.69l-9.51,12.28-18.67,71.09,16-76.54,6-7.66c-3.36-.54-6.56-1.21-9.6-2l-6.54,17.73,4.16-18.35c-1.06-.29-2.1-.58-3.11-.88l-72.3,174,23.89-58.61-3.17,7.76-13.53,5-35.78,60.23,37-72,18.38-8.12L202.71,209l2.47-21.84,21.49-50.21c-2.14-.76-4.15-1.53-6-2.3L184,209.9l35.57-75.76-2-.89L95.82,346H233.31l3-45.37L231.6,307l-7.71,38.7,4.32-41.2,8.7-13.36h0l1.48-22.64,5.24-34.23,3.71-28.08-3.71,64.21L237.12,346H430.8L310.19,135.18C308.94,135.68,307.7,136.16,306.46,136.61Zm-46.17,137,3-112.36,1.83,67.42ZM287.44,307,285,271.7l-3.88-2.81L282,318l-2.76.05-1.54-80.24,2.76-.06.31,16,6.64,10.79Zm70.3,6.47L323.8,234.79l2.54-1.09,33.93,78.65Z" transform="translate(-11.75 -72.51)"/><polygon class="cls-1" points="448.98 252.65 427.71 221.7 459.54 271.84 460 271.84 462.17 271.84 448.98 252.65"/><polygon class="cls-1" points="145.06 122.81 144.84 123.24 133.49 145.58 157.7 109.38 165.85 97.2 175.41 82.91 166.35 85.64 163.52 86.49 149.41 114.25 138.94 114.25 98.29 190.16 138.94 123.97 145.06 122.81"/><polygon class="cls-1" points="73.03 213.23 63.15 230.39 83.49 209.01 89.27 202.93 86.41 208.51 76.63 227.56 87.81 208.27 94.93 195.96 96.76 192.81 94.7 194.59 76.54 210.2 73.03 213.23"/><polygon class="cls-1" points="72.22 210.94 37.26 273.46 37.42 273.46 73.79 210.68 72.22 210.94"/><polygon class="cls-1" points="73.8 195.96 65.23 197.54 27.99 271.51 30.3 271.51 73.8 195.96"/><rect class="cls-2" x="340.66" y="230.74" width="2.76" height="85.66" transform="translate(-92.14 85.36) rotate(-23.34)"/><polygon class="cls-2" points="268.75 165.26 265.98 165.31 267.53 245.56 270.29 245.51 269.34 196.37 273.22 199.18 275.69 234.45 275.69 192 269.05 181.22 268.75 165.26"/><line class="cls-3" x1="305.31" y1="57.01" x2="306.81" y2="57.96"/><path class="cls-2" d="M407.67,203.3l-21.85-8.55-32.77-57.06-26.74-18.35-.92-1.6c.14-.67.26-1.34.35-2,1.22-9.43-2-18.4-8.29-23.41-18.91-15-57.57-35.07-103.95-1.45-6.46,4.69-9.93,13.41-9.09,22.79l-.63-.36L186,144.37l-24.29,7.31L99.79,258.57,70,263.68,11.75,367.83H503Zm-17.52,4.88,6.08,4.69,8.51,6.58,63,112-63-105.33-2.54-2.86L381.42,199.9Zm-6.9,9,7,12h11.93l37.27,65h0l25,43.66-35.16-59.95-17.69-24.16-13.37-18.27-5.84-.57-6.91-.68-11-20.45-.14-.27-36.53-67.68,8.21,8,.63.61,30.4,52.17Zm61.61,125.72-30.95-49.62,17.19,24.15,15.41,21.65,6.75,2.11,10,3.14-8.62-.67-8.91-.69ZM354.22,183.68l-15.73-24.34L325.07,146l7.29,5.91,6,4.16,2.71,1.86,12.82,25.18Zm22,44.82,9.18,11.11,1,0,8.89.27,1.65.05,17.46,30.41-8.6-12.09L396,244.54l-7.2-.73L400.54,258l-5.07-2.53L390,252.73l33.54,63.11L362.29,211.77Zm-29.1-82.89,29.1,54.29-31.06-52.58-4.39-2.78-22.18-14.06,15.55,9.86-15.83-9.61-2-1.21L314.07,122l-.31-1.08-1-1-3.69-4,4.56,2.68,1,.59.49,2.15,1.87,8.18,1.61.86,20.14,10.8Zm-152.86,11,.57-4.13,14.14-19.64-13.57,27.55-2.3,4.68L178.7,194.22l12.47-28.59,2.65-6.06ZM186.67,167l-12.91,33.09-44.57,78.65-23.14,16.39,79-127.65,3.79-6.12ZM80,338.41,76.71,342l-1.81,2,3.7-10.53,3.6-1,5.24-1.39,33.42-44L88,335.37Zm70.69-151.65h10.48L175.26,159l2.84-.86,9.06-2.72-9.56,14.29-8.15,12.18-24.22,36.19,11.35-22.33.23-.44-6.13,1.16L110,262.67ZM106.44,267.1l2.06-1.77-1.82,3.15-7.13,12.31L88.38,300.07,98.15,281l2.87-5.58-5.79,6.09L74.9,302.91l9.87-17.17,3.52-3Zm-29.47,3,8.57-1.59L42.05,344H39.73ZM49,346,84,283.46l1.57-.27L49.17,346Zm325.62,0H237.12l6.51-75.61,3.71-64.21-3.71,28.08-5.24,34.23-1.48,22.64h0l-8.7,13.36-4.32,41.2L231.6,307l4.68-6.36-3,45.37H95.82L217.53,133.25l2,.89L184,209.9l36.66-75.29c1.86.77,3.87,1.54,6,2.3l-21.49,50.21L202.71,209l-15.55,38.16-2.92,7.17L160.35,312.9l72.3-174c1,.3,2,.59,3.11.88l-4.16,18.35,6.54-17.73c3,.75,6.24,1.42,9.6,2l-6,7.66-16,76.54,18.67-71.09,9.51-12.28a113.17,113.17,0,0,0,12.45.69c1.28,0,2.57,0,3.88-.07l-.81.9,3.6,34.64V143.64c1.34-.08,2.69-.18,4.06-.31l6.64,50,11.72,5.21,19.45,73.13-14.52-77.4L286,187.12l-8.44-43.83c2.36-.24,4.76-.55,7.19-.95L287,153.25l-1.23-11.08c1.54-.27,3.11-.58,4.68-.92l-5-21.24-.39-.22a91.93,91.93,0,0,1-43.34-1.32l-5.83,5.77-1.17,3.67-2.5,7.85,1.73-8.1,1.13-5.27,4.63-4.48a103.22,103.22,0,0,1-13-4.81,5.41,5.41,0,0,1-.22-1l-9.72-.74-4.58,6.75-4.43,6.55-16.06,23.68-2.15,3.18,2.06-3.48,15.07-25.47,3.37-5.69,6.17-10.43L226.49,110a4.34,4.34,0,0,1,.36-1.49c32.47-23.35,59.51-12.48,76.58.91a3.8,3.8,0,0,1,.26.84L316.16,115l6.13,2.3,2.21.83.07,0,0,0,.53.78,6.05,8.89,5.2,7.66-2-2.05L323.9,122.67l-2.74-2.81-1.9-.86-4.48-2-11-4.91a6.84,6.84,0,0,1-.27,1.87l-.17.07,4.19,1.31,2.15,9,0,.08,2.35,9.93.49,2.05,1.18,5-1.57-5.24-.48-1.62L309,125.43l-.14-.47-2.36-7.87-4.88-2.35a99.35,99.35,0,0,1-14.24,4.53L291,141.14l1.51-.34,12,37.91L318.88,183l21,39.75,2.45-1.29-21.56-40.78-14-4.17-11.54-36.33c1.22-.32,2.46-.67,3.7-1L312.73,177l-11.68-38.51c.93-.29,1.87-.6,2.8-.92l6.09,13,2.5-1.17-6-12.78c1.24-.45,2.48-.93,3.73-1.43L430.8,346Zm96.66-1.62-31.83-50.15,21.27,31,13.18,19.19h-2.62Z" transform="translate(-11.75 -72.51)"/><polygon class="cls-2" points="120.02 254.74 155.8 194.5 169.32 189.54 172.49 181.77 175.41 174.6 157.03 182.72 120.02 254.74"/><line class="cls-3" x1="175.41" y1="174.6" x2="172.49" y2="181.77"/><polygon class="cls-2" points="248.55 201.06 253.39 156.11 251.56 88.7 248.55 201.06"/></svg>