<svg id="Calque_1" data-name="Calque 1" xmlns="http://www.w3.org/2000/svg" viewBox="0 0 294 442.01"><defs><style>.cls-1{fill:#007338;}</style></defs><title>Lieux</title><path class="cls-1" d="M381.78,107.11A146.83,146.83,0,0,0,126.2,251.51L241.35,469.22a16.58,16.58,0,0,0,29.3,0L385.79,251.51A145.68,145.68,0,0,0,381.78,107.11ZM256,112.38a74.93,74.93,0,1,1-74.92,74.92A75,75,0,0,1,256,112.38Z" transform="translate(-109 -36.04)"/><path class="cls-1" d="M381.78,107.11A146.83,146.83,0,0,0,126.2,251.51L241.35,469.22a16.58,16.58,0,0,0,29.3,0L385.79,251.51A145.68,145.68,0,0,0,381.78,107.11ZM368.86,242.56,256,456,143.14,242.56a127.68,127.68,0,1,1,225.72,0Z" transform="translate(-109 -36.04)"/><path class="cls-1" d="M256,101.38a85.93,85.93,0,1,0,85.92,85.92A86,86,0,0,0,256,101.38Zm0,160.85a74.93,74.93,0,1,1,74.92-74.93A75,75,0,0,1,256,262.23Z" transform="translate(-109 -36.04)"/></svg>